TexturaLibera-Expand.sfdir
StartChar: hyphen
Encoding: 45 45 13
Width: 360
Flags: W
HStem: 154 117
VStem: 74 212
LayerCount: 2
Back
SplineSet
120 200 m 25
 240 225 l 1049
EndSplineSet
Fore
SplineSet
74 175 m 1
 145 246 l 1
 265 271 l 1
 286 250 l 1
 215 179 l 1
 95 154 l 1
 74 175 l 1
EndSplineSet
EndChar
StartChar: three
Encoding: 51 51 19
Width: 480
Flags: W
HStem: -196 92<152.642 227.532> 426 20G<181 301> 426 20G<181 301>
VStem: 314 92<-115 96.9705>
LayerCount: 2
Back
SplineSet
120 350 m 1
 180 400 l 1
 240 400 l 1
 330 350 l 1
 330 270 l 1
 210 150 l 1049
90 -200 m 25
 67 -220 140 -150 180 -150 c 27
 231 -150 300 -200 300 -200 c 9
 360 -140 l 1
 360 85 l 9
 270 175 l 1049
EndSplineSet
Fore
SplineSet
69 -243 m 2xd0
 65 -246 l 2
 61 -250 l 2
 40 -228 l 2
 111 -157 l 2
 116 -152 172 -104 205 -104 c 0
 244 -104 293 -134 314 -147 c 1
 314 60 l 2
 314 97 265 109 245 129 c 2
 228 147 l 1
 185 104 l 1
 164 125 l 1
 284 245 l 1
 284 316 l 1
 215 354 l 1
 155 354 l 1
 95 304 l 1
 74 325 l 1
 145 396 l 1
 205 446 l 1
 265 446 l 1
 355 396 l 1
 376 375 l 1
 376 295 l 1
 298 217 l 1
 406 110 l 1
 406 -115 l 1
 275 -246 l 1
 275 -246 206 -196 155 -196 c 0
 128 -196 86 -228 69 -243 c 2xd0
EndSplineSet
Substitution2: "Subscript forms-1" three.inferior
Substitution2: "Superscript forms-1" three.superior
EndChar
StartChar: colon
Encoding: 58 58 26
Width: 360
Flags: W
HStem: -46 21G<165 205>
VStem: 104 152
LayerCount: 2
Back
SplineSet
150 350 m 25
 210 290 l 1049
150 60 m 25
 210 0 l 1049
EndSplineSet
Fore
SplineSet
104 35 m 1
 175 106 l 1
 256 25 l 1
 185 -46 l 1
 104 35 l 1
104 325 m 1
 175 396 l 1
 256 315 l 1
 185 244 l 1
 104 325 l 1
EndSplineSet
EndChar
StartChar: semicolon
Encoding: 59 59 27
Width: 360
Flags: W
HStem: -196 21G<75 115>
VStem: 74 182
LayerCount: 2
Back
SplineSet
150 60 m 25
 210 0 l 1
 210 -60 l 25
 120 -150 l 1049
150 350 m 25
 210 290 l 1049
EndSplineSet
Fore
SplineSet
104 325 m 1
 175 396 l 1
 256 315 l 1
 185 244 l 1
 104 325 l 1
104 35 m 1
 175 106 l 1
 256 25 l 1
 256 -35 l 1
 95 -196 l 1
 74 -175 l 1
 164 -85 l 1
 164 -25 l 1
 104 35 l 1
EndSplineSet
EndChar
StartChar: greater
Encoding: 62 62 30
Width: 720
Flags: W
HStem: 526 20G<125 193>
LayerCount: 2
Back
SplineSet
120 500 m 25
 600 300 l 25
 120 100 l 1049
EndSplineSet
Fore
SplineSet
74 475 m 1
 145 546 l 1
 625 346 l 1
 646 325 l 1
 575 254 l 1
 95 54 l 1
 74 75 l 1
 145 146 l 1
 490 290 l 1
 95 454 l 1
 74 475 l 1
EndSplineSet
EndChar
StartChar: M
Encoding: 77 77 45
Width: 1080
Flags: W
HStem: -46 21G<15 50 291 325 615 655 885 925> 4 92<120.289 224.423> 504 21G<15 54> 554 92<115.988 198.032> 554 67<255.605 276>
VStem: 225 30<95 530> 344 92<85 515> 554 92<85 473.879> 824 92<85 475>
AnchorPoint: "blwmark" 540 0 basechar 0
AnchorPoint: "abvmark" 600 700 basechar 0
LayerCount: 2
Back
SplineSet
990 60 m 25
 930 0 l 17
 870 60 l 1
 870 450 l 1
 720 600 l 1
 600 480 l 1025
60 550 m 1
 60 550 101 600 149 600 c 3
 192 600 214 575 240 575 c 3
 274 575 300 600 301 600 c 1025
240 550 m 1
 240 75 l 1025
720 60 m 25
 660 0 l 17
 600 60 l 1
 600 450 l 1
 450 600 l 1
 390 540 l 1
 390 60 l 1
 330 0 l 1
 330 0 298 50 180 50 c 3
 97 50 60 0 60 0 c 1033
EndSplineSet
Fore
SplineSet
745 106 m 1xef80
 766 85 l 1
 635 -46 l 1
 554 35 l 1
 554 425 l 2
 554 489 470 509 436 543 c 1
 436 85 l 1
 305 -46 l 1
 291 -32 l 2
 272 -17 232 4 155 4 c 0
 101 4 67 -17 50 -31 c 2
 35 -46 l 1
 14 -25 l 2
 14 -25 16 -22 20 -18 c 2
 21 -18 l 2
 91 53 l 2
 105 67 142 96 205 96 c 0
 212 96 219 95 225 95 c 1
 225 530 l 2
 222 530 218 529 215 529 c 0
 189 529 167 554 124 554 c 0
 96 554 71 537 54 522 c 2
 35 504 l 1
 14 525 l 1
 14 525 17 529 22 534 c 2
 93 605 l 2
 94 606 l 0
 109 621 140 646 174 646 c 0xf780
 217 646 239 621 265 621 c 0xef80
 299 621 325 646 326 646 c 2xf780
 347 625 l 1
 276 554 l 2xef80
 275 554 268 547 255 540 c 1
 255 93 l 1
 304 86 331 68 344 57 c 1
 344 515 l 1
 475 646 l 1
 610 511 l 1
 745 646 l 1xf780
 916 475 l 1
 916 85 l 1
 955 46 l 1
 1015 106 l 1
 1036 85 l 1
 905 -46 l 1
 824 35 l 1
 824 425 l 2
 824 496 732 517 695 554 c 1
 631 490 l 1
 646 475 l 1
 646 85 l 1
 685 46 l 1
 745 106 l 1xef80
EndSplineSet
EndChar
StartChar: T
Encoding: 84 84 52
Width: 840
Flags: W
HStem: -46 92<347.149 494.02> 454 21G<75 100> 480 20G<315 345> 554 92<250.208 343.64>
VStem: 104 92<160.99 297.877> 315 30<68 444 478.449 500> 434 92<125 425>
AnchorPoint: "blwmark" 420 0 basechar 0
AnchorPoint: "abvmark" 480 700 basechar 0
LayerCount: 2
Back
SplineSet
330 450 m 1
 330 100 l 1049
480 450 m 1
 480 100 l 1049
300 450 m 1
 300 450 150 356 150 250 c 3
 150 84 257 0 420 0 c 3
 563 0 721 150 722 150 c 1049
120 500 m 17
 120 500 216 600 300 600 c 27
 396 600 418 500 514 500 c 19
 606 500 690 600 691 600 c 1033
EndSplineSet
Fore
SplineSet
95 454 m 1
 74 475 l 1
 74 475 75 476 76 477 c 2
 147 548 l 1
 162 563 249 646 325 646 c 0
 421 646 443 546 539 546 c 0
 600 546 657 590 689 619 c 2
 715 646 l 2
 716 646 l 2
 737 625 l 1
 736 623 l 2
 734 621 729 617 723 611 c 2
 723 610 l 2
 652 540 l 2
 629 517 581 474 526 459 c 1
 526 125 l 1
 455 54 l 1
 434 75 l 1
 434 425 l 1
 465 456 l 1
 389 471 362 554 275 554 c 0
 202 554 121 479 100 459 c 2
 95 454 l 1
315 500 m 1
 345 500 l 1
 345 476 l 1
 346 475 l 1
 345 474 l 1
 345 58 l 1
 375 50 409 46 445 46 c 0
 588 46 746 196 747 196 c 2
 768 175 l 1
 697 104 l 2
 696 104 538 -46 395 -46 c 0
 308 -46 238 -22 190 25 c 2
 169 46 l 2
 127 88 104 147 104 225 c 0
 104 277 140 326 176 362 c 2
 247 433 l 2
 274 460 301 479 315 489 c 1
 315 500 l 1
315 444 m 1
 275 404 l 1
 275 404 258 394 236 376 c 1
 213 346 196 311 196 275 c 0
 196 204 216 147 251 107 c 0
 270 91 291 78 315 68 c 1
 315 444 l 1
EndSplineSet
EndChar
StartChar: U
Encoding: 85 85 53
Width: 840
Flags: W
HStem: -46 92<347.149 497> 504 21G<15 54> 535 86<306 315 346.222 438> 554 92<115.988 256.051> 651 20G<695 735>
VStem: 104 92<160.99 356.155> 315 30<68 532> 434 92<125 525> 674 92<65 84 124.008 173 177 560>
AnchorPoint: "blwmark" 420 0 basechar 0
AnchorPoint: "abvmark" 540 700 basechar 0
LayerCount: 2
Back
SplineSet
480 550 m 1
 480 100 l 1025
690 60 m 25
 750 0 l 25
 810 60 l 1049
690 625 m 25
 750 565 l 1049
720 595 m 9
 720 30 l 1049
300 550 m 1
 300 550 150 466 150 250 c 3
 150 84 257 0 420 0 c 3
 563 0 721 150 722 150 c 1049
60 550 m 1
 60 550 101 600 149 600 c 3
 245 600 274 575 480 575 c 3
 514 575 540 600 541 600 c 1025
330 525 m 1
 330 50 l 1025
EndSplineSet
Fore
SplineSet
35 504 m 1xdf80
 14 525 l 1
 14 525 17 529 22 534 c 2
 93 605 l 2
 94 606 l 0
 109 621 140 646 174 646 c 0xdf80
 270 646 299 621 505 621 c 0xef80
 539 621 565 646 566 646 c 2
 587 625 l 1
 526 564 l 1
 526 125 l 1
 455 54 l 1
 434 75 l 1
 434 525 l 1
 438 529 l 1
 402 529 371 530 345 532 c 1
 345 58 l 1
 375 50 409 46 445 46 c 0
 527 46 615 96 674 138 c 1
 674 570 l 1
 644 600 l 1
 715 671 l 1
 745 641 l 1
 766 620 l 1
 796 590 l 1
 766 560 l 1
 766 177 l 1
 768 175 l 1
 766 173 l 1
 766 55 l 1
 775 46 l 1
 835 106 l 1
 856 85 l 1
 725 -46 l 1
 695 -16 l 1
 674 5 l 1
 644 35 l 1
 674 65 l 1
 674 84 l 1
 625 43 505 -46 395 -46 c 0
 308 -46 238 -22 190 25 c 2
 169 46 l 2
 127 88 104 147 104 225 c 0
 104 359 162 442 206 486 c 2
 259 540 l 1
 208 547 176 554 124 554 c 0
 96 554 71 537 54 522 c 2
 35 504 l 1xdf80
315 534 m 2
 312 534 309 535 306 535 c 2xef80
 275 504 l 1
 275 504 271 502 264 497 c 0
 228 448 196 376 196 275 c 0
 196 204 216 147 251 107 c 0
 270 91 291 78 315 68 c 1
 315 534 l 2
EndSplineSet
EndChar
StartChar: V
Encoding: 86 86 54
Width: 840
Flags: W
HStem: -46 21G<405 445> 104 92<255 318.109> 504 21G<15 54> 554 92<115.988 198.032> 554 67<255.605 276>
VStem: 225 30<196 530> 344 92<275 515> 554 92<415.5 480.448> 644 92<266 342.04>
AnchorPoint: "blwmark" 450 0 basechar 0
AnchorPoint: "abvmark" 540 700 basechar 0
LayerCount: 2
Back
SplineSet
60 550 m 1
 60 550 101 600 149 600 c 3
 192 600 214 575 240 575 c 3
 274 575 300 600 301 600 c 1025
240 550 m 1
 240 175 l 1025
390 250 m 1
 390 540 l 1
 450 600 l 1025
120 100 m 17
 120 100 166 150 210 150 c 3
 449 150 450 0 450 0 c 1
 690 241.200195312 l 1
 690 378 l 1
 690 378 600 382.799804688 600 450 c 3
 600 516 720 600 720 600 c 1025
EndSplineSet
Fore
SplineSet
95 54 m 1xee80
 74 75 l 1
 74 75 75 76 77 78 c 2
 148 149 l 2
 159 160 191 190 225 195 c 1
 225 530 l 2
 222 530 218 529 215 529 c 0
 189 529 167 554 124 554 c 0
 96 554 71 537 54 522 c 2
 35 504 l 1
 14 525 l 1
 14 525 17 529 22 534 c 2
 93 605 l 2
 94 606 l 0
 109 621 140 646 174 646 c 0xf680
 217 646 239 621 265 621 c 0xee80
 299 621 325 646 326 646 c 2xf680
 347 625 l 1
 276 554 l 2
 275 554 268 547 255 540 c 1
 255 196 l 1
 349 192 402 164 433 133 c 2
 454 112 l 2
 455 112 l 0
 472 94 482 75 488 60 c 1
 644 216 l 1
 644 335 l 1xee80
 628 339 608 346 593 361 c 2
 572 382 l 2
 571 382 l 0
 561 392 554 406 554 425 c 0
 554 457 581 492 610 521 c 2
 681 592 l 2
 682 593 l 2
 714 624 745 646 745 646 c 2xf7
 766 625 l 1
 695 554 l 1
 695 554 686 547 672 536 c 1
 657 516 646 495 646 475 c 0xef
 646 462 649 452 654 443 c 1
 680 426 715 424 715 424 c 1
 736 403 l 1
 736 266 l 1
 496 25 l 1
 425 -46 l 1
 404 -25 l 1
 404 -25 404 -21 403 -15 c 0
 401 -1 395 26 373 52 c 1
 339 80 280 104 185 104 c 0
 151 104 116 75 102 61 c 2
 95 54 l 1xee80
365 204 m 1
 344 225 l 1
 344 515 l 1
 475 646 l 1
 496 625 l 1
 436 565 l 1
 436 275 l 1
 365 204 l 1
EndSplineSet
EndChar
StartChar: grave
Encoding: 96 96 64
Width: 480
Flags: W
HStem: 504 242
VStem: 104 272
LayerCount: 2
Back
SplineSet
150 700 m 17
 150 600 330 550 330 550 c 1049
EndSplineSet
Fore
SplineSet
175 746 m 1
 196 725 l 1
 196 702 206 681 220 664 c 0
 274 619 355 596 355 596 c 2
 376 575 l 1
 305 504 l 1
 305 504 212 530 160 582 c 0
 159 582 l 2
 138 604 l 2
 118 624 104 647 104 675 c 1
 175 746 l 1
EndSplineSet
EndChar
StartChar: a
Encoding: 97 97 65
Width: 480
Flags: W
HStem: -46 21G<165 205 345 385> 179 92<237.369 314> 426 20G<215 355> 426 20G<215 355>
VStem: 314 92<46.1399 83 125 179 271 333>
AnchorPoint: "blwmark" 240 0 basechar 0
AnchorPoint: "abvmark" 270 500 basechar 0
LayerCount: 2
Back
SplineSet
150 220 m 17
 120 310 l 1
 210 400 l 1
 360 375 l 1
 360 30 l 1
 390 0 l 1
 450 60 l 1049
360 150 m 25
 210 0 l 1
 120 90 l 1
 120 160 l 1
 210 250 l 1
 210 250 232.928594192 225 300 225 c 3
 360 225 l 1033
EndSplineSet
Fore
SplineSet
193 254 m 1xc8
 235 296 l 1
 235 295 l 2
 239 291 261 273 314 271 c 1
 314 333 l 1
 185 354 l 1
 166 335 l 1
 193 254 l 1xc8
314 83 m 1
 185 -46 l 1
 74 65 l 1
 74 135 l 1
 119 180 l 1
 104 195 l 1
 74 285 l 1
 235 446 l 1xe8
 385 421 l 1
 406 400 l 1
 406 250 l 1
 406 175 l 1
 406 55 l 2
 406 51 412 49 415 46 c 2
 475 106 l 1
 496 85 l 1
 365 -46 l 1
 314 5 l 1
 314 83 l 1
314 179 m 1
 275 179 l 2
 212 179 189 201 186 204 c 2
 185 204 l 1
 166 185 l 1
 166 115 l 1
 235 46 l 1
 314 125 l 1
 314 179 l 1
EndSplineSet
Substitution2: "Stylistic alternates-1" ascript
EndChar
StartChar: b
Encoding: 98 98 66
Width: 480
Flags: W
HStem: -46 21G<195 235> 426 20G<245 285> 426 20G<245 285>
VStem: 74 92<99.5798 305 347 560> 314 92<145 300.42>
AnchorPoint: "blwmark" 240 0 basechar 0
AnchorPoint: "abvmark" 240 700 basechar 0
LayerCount: 2
Back
SplineSet
90 625 m 25
 150 565 l 1049
120 595 m 9
 120 120 l 25
 240 0 l 25
 360 120 l 25
 360 280 l 25
 240 400 l 1
 120 280 l 1049
EndSplineSet
Fore
SplineSet
166 305 m 1x98
 166 145 l 2
 166 92 236 75 265 46 c 1
 314 95 l 1
 314 255 l 2
 314 308 244 325 215 354 c 1
 166 305 l 1x98
166 347 m 1
 265 446 l 1xd8
 406 305 l 1
 406 145 l 1
 215 -46 l 1
 74 95 l 1
 74 570 l 1
 44 600 l 1
 115 671 l 1
 155 630 l 1
 166 620 l 1
 196 590 l 1
 166 560 l 1
 166 347 l 1
EndSplineSet
EndChar
StartChar: c
Encoding: 99 99 67
Width: 420
Flags: W
HStem: -46 21G<195 235> 426 20G<245 285> 426 20G<245 285>
VStem: 74 92<99.5798 255>
AnchorPoint: "blwmark" 240 0 basechar 0
AnchorPoint: "abvmark" 240 500 basechar 0
LayerCount: 2
Back
SplineSet
360 280 m 9
 240 400 l 25
 120 280 l 25
 120 120 l 25
 240 0 l 25
 360 120 l 1041
EndSplineSet
Fore
SplineSet
406 305 m 1xd0
 335 234 l 1
 215 354 l 1
 166 305 l 1
 166 145 l 2
 166 92 236 75 265 46 c 1
 385 166 l 1
 406 145 l 1
 215 -46 l 1
 74 95 l 1
 74 255 l 1
 265 446 l 1
 406 305 l 1xd0
EndSplineSet
EndChar
StartChar: d
Encoding: 100 100 68
Width: 480
Flags: W
HStem: -46 21G<195 235> 426 20G<245 285> 426 20G<245 285> 504 92<170.136 286.407>
VStem: 74 92<99.5798 255> 314 92<145 255 397 474.342>
AnchorPoint: "blwmark" 240 0 basechar 0
AnchorPoint: "abvmark" 300 700 basechar 0
LayerCount: 2
Back
SplineSet
360 280 m 1
 240 400 l 25
 120 280 l 1
 120 120 l 25
 240 0 l 25
 360 120 l 1
 360 450 l 10
 360 510 293 550 240 550 c 0
 187 550 120 549 120 600 c 27
 120 633 180 670 169 650 c 1049
EndSplineSet
Fore
SplineSet
314 255 m 1x9c
 215 354 l 1
 166 305 l 1
 166 145 l 2
 166 92 236 75 265 46 c 1
 314 95 l 1
 314 255 l 1x9c
314 397 m 1
 314 425 l 2
 314 444 308 461 297 475 c 1
 273 493 242 504 215 504 c 0
 175 504 127 504 106 525 c 2
 85 546 l 2
 78 553 74 562 74 575 c 0
 74 588 83 602 93 612 c 2
 164 683 l 2
 165 683 l 2
 178 696 192 704 195 701 c 2
 216 680 l 2
 217 679 216 678 215 675 c 2
 166 626 l 2
 166 625 l 0
 166 618 167 613 169 608 c 0
 193 596 232 596 265 596 c 0
 297 596 333 582 357 558 c 0
 357 557 l 1
 358 557 l 1
 379 536 l 2
 395 520 406 499 406 475 c 2
 406 145 l 1
 215 -46 l 1
 74 95 l 1
 74 255 l 1
 265 446 l 1xdc
 314 397 l 1
EndSplineSet
EndChar
StartChar: i
Encoding: 105 105 73
Width: 240
Flags: W
HStem: -46 21G<105 145> 426 20G<95 135> 426 20G<95 135> 494 21G<75 115>
VStem: 74 92<65 335>
AnchorPoint: "blwmark" 120 0 basechar 0
LayerCount: 2
Back
SplineSet
120 660 m 25
 180 600 l 25
 120 540 l 1049
90 60 m 25
 150 0 l 25
 210 60 l 1049
150 340 m 25
 90 400 l 25
 30 340 l 1049
120 370 m 9
 120 30 l 1025
EndSplineSet
Fore
SplineSet
74 635 m 1x98
 145 706 l 1
 226 625 l 1
 95 494 l 1
 74 515 l 1
 134 575 l 1
 74 635 l 1x98
166 395 m 1
 196 365 l 1
 166 335 l 1
 166 55 l 1
 175 46 l 1
 235 106 l 1
 256 85 l 1
 125 -46 l 1
 95 -16 l 1
 85 -5 l 1
 44 35 l 1
 74 65 l 1
 74 345 l 1
 65 354 l 1
 5 294 l 1
 -16 315 l 1
 115 446 l 1xd8
 145 416 l 1
 166 395 l 1
EndSplineSet
Substitution2: "Dotless forms-1" dotlessi
EndChar
StartChar: m
Encoding: 109 109 77
Width: 720
Flags: W
HStem: -46 21G<105.488 145 345 385 585 625> 426 20G<95 135 275 315 515 555> 426 20G<95 135 275 315 515 555>
VStem: 74 92<65 275 317 335> 314 92<65 275> 554 92<65 321.97>
CounterMasks: 1 1c
AnchorPoint: "blwmark" 360 0 basechar 0
AnchorPoint: "abvmark" 360 500 basechar 0
LayerCount: 2
Back
SplineSet
570 60 m 25
 630 0 l 1049
600 30 m 1
 600 310 l 25
 510 400 l 1
 360 250 l 1049
330 60 m 25
 390 0 l 1049
360 30 m 1
 360 310 l 25
 270 400 l 1
 120 250 l 1049
90 60 m 25
 150 0 l 1049
150 340 m 25
 90 400 l 1049
120 370 m 9
 120 30 l 1025
EndSplineSet
Fore
SplineSet
335 -16 m 1xdc
 314 5 l 1
 284 35 l 1
 314 65 l 1
 314 225 l 1
 314 285 l 2
 314 322 265 334 245 354 c 1
 166 275 l 1
 166 55 l 1
 196 25 l 1
 125 -46 l 1
 85 -5 l 1
 74 5 l 1
 44 35 l 1
 74 65 l 1
 74 225 l 1
 74 345 l 1
 44 375 l 1
 115 446 l 1
 145 416 l 1
 166 395 l 1
 196 365 l 1
 166 335 l 1
 166 317 l 1
 295 446 l 1
 406 335 l 1
 406 317 l 1
 535 446 l 1
 646 335 l 1
 646 55 l 1
 676 25 l 1
 605 -46 l 1
 575 -16 l 1
 554 5 l 1
 524 35 l 1
 554 65 l 1
 554 285 l 2
 554 322 505 334 485 354 c 1
 406 275 l 1
 406 55 l 1
 436 25 l 1
 365 -46 l 1
 335 -16 l 1xdc
EndSplineSet
Substitution2: "Stylistic alternates-1" m.alt
EndChar
StartChar: n
Encoding: 110 110 78
Width: 480
Flags: W
HStem: -46 21G<105 145 345 385> 426 20G<95 135 275 315> 426 20G<95 135 275 315>
VStem: 74 92<65 275 317 335> 314 92<65 321.97>
AnchorPoint: "blwmark" 240 0 basechar 0
AnchorPoint: "abvmark" 240 500 basechar 0
LayerCount: 2
Back
SplineSet
330 60 m 25
 390 0 l 1049
360 30 m 1
 360 310 l 25
 270 400 l 1
 120 250 l 1049
90 60 m 25
 150 0 l 1049
150 340 m 25
 90 400 l 1049
120 370 m 9
 120 30 l 1025
EndSplineSet
Fore
SplineSet
166 395 m 1xd8
 196 365 l 1
 166 335 l 1
 166 317 l 1
 295 446 l 1
 406 335 l 1
 406 55 l 1
 436 25 l 1
 365 -46 l 1
 335 -16 l 1
 314 5 l 1
 284 35 l 1
 314 65 l 1
 314 285 l 2
 314 322 265 334 245 354 c 1
 166 275 l 1
 166 55 l 1
 196 25 l 1
 125 -46 l 1
 74 5 l 1
 44 35 l 1
 74 65 l 1
 74 225 l 1
 74 345 l 1
 44 375 l 1
 115 446 l 1
 145 416 l 1
 166 395 l 1xd8
EndSplineSet
Substitution2: "Stylistic alternates-1" n.alt
EndChar
StartChar: o
Encoding: 111 111 79
Width: 480
Flags: W
HStem: -46 21G<195 235> 426 20G<245 285> 426 20G<245 285>
VStem: 74 92<99.5798 255> 314 92<145 300.42>
AnchorPoint: "blwmark" 240 0 basechar 0
AnchorPoint: "abvmark" 240 500 basechar 0
LayerCount: 2
Back
SplineSet
240 400 m 25
 120 280 l 25
 120 120 l 25
 240 0 l 25
 360 120 l 25
 360 280 l 25
 240 400 l 25
EndSplineSet
Fore
SplineSet
215 354 m 1x98
 166 305 l 1
 166 145 l 2
 166 92 236 75 265 46 c 1
 314 95 l 1
 314 255 l 2
 314 308 244 325 215 354 c 1x98
74 255 m 1
 265 446 l 1xd8
 406 305 l 1
 406 145 l 1
 215 -46 l 1
 74 95 l 1
 74 255 l 1
EndSplineSet
EndChar
StartChar: r
Encoding: 114 114 82
Width: 360
Flags: W
HStem: -46 21G<105 145> 426 20G<95 135 245 285> 426 20G<95 135 245 285>
VStem: 74 92<65 305>
AnchorPoint: "blwmark" 180 0 basechar 0
AnchorPoint: "abvmark" 180 500 basechar 0
LayerCount: 2
Back
SplineSet
300 340 m 25
 240 400 l 25
 120 280 l 1049
90 60 m 25
 150 0 l 1049
90 400 m 25
 150 340 l 1049
120 370 m 9
 120 30 l 1025
EndSplineSet
Fore
SplineSet
44 375 m 1xd0
 115 446 l 1
 145 416 l 1
 166 395 l 1
 190 371 l 1
 265 446 l 1
 346 365 l 1
 275 294 l 1
 215 354 l 1
 166 305 l 1
 166 55 l 1
 196 25 l 1
 125 -46 l 1
 95 -16 l 1
 85 -5 l 1
 44 35 l 1
 74 65 l 1
 74 255 l 1
 74 345 l 1
 44 375 l 1xd0
EndSplineSet
EndChar
StartChar: s
Encoding: 115 115 83
Width: 480
Flags: W
HStem: -46 21G<15 65 185 235> 14 92<110 190> 294 92<297.717 369> 426 20G<245 285 415 465> 426 20G<245 285 415 465>
AnchorPoint: "blwmark" 240 0 basechar 0
AnchorPoint: "abvmark" 240 500 basechar 0
LayerCount: 2
Back
SplineSet
420 400 m 17
 420 400 358 340 330 340 c 24
 270 340 240 400 240 400 c 9
 120 280 l 1
 120 240 l 1
 360 160 l 1
 360 120 l 1
 240 0 l 17
 240 0 180 60 150 60 c 24
 120 60 60 0 60 0 c 1025
EndSplineSet
Fore
SplineSet
466 425 m 1xf0
 395 354 l 1
 395 354 333 294 305 294 c 0
 275 294 253 309 238 324 c 2
 217 345 l 2
 215 347 213 348 212 350 c 2
 166 305 l 1
 166 279 l 1
 385 206 l 1
 406 185 l 1
 406 145 l 1
 215 -46 l 1
 215 -46 155 14 125 14 c 0
 95 14 35 -46 35 -46 c 1
 14 -25 l 1
 85 46 l 1
 85 46 145 106 175 106 c 0
 205 106 265 46 265 46 c 1
 314 95 l 1
 314 121 l 1
 95 194 l 1
 74 215 l 1
 74 255 l 1
 265 446 l 1
 286 425 l 1
 286 425 290 416 298 406 c 0
 312 395 332 386 355 386 c 0
 383 386 445 446 445 446 c 1
 466 425 l 1xf0
EndSplineSet
EndChar
StartChar: u
Encoding: 117 117 85
Width: 480
Flags: W
HStem: -46 21G<165 205 345 385> 426 20G<95 135 335 375> 426 20G<95 135 335 375>
VStem: 74 92<78.0295 335> 314 92<55 83 125 335>
AnchorPoint: "blwmark" 240 0 basechar 0
AnchorPoint: "abvmark" 240 500 basechar 0
LayerCount: 2
Back
SplineSet
150 340 m 25
 90 400 l 1049
450 60 m 25
 390 0 l 1
 360 30 l 17
 360 370 l 1025
390 340 m 25
 330 400 l 1049
120 370 m 25
 120 90 l 1
 210 0 l 25
 360 150 l 1049
EndSplineSet
Fore
SplineSet
475 106 m 1xd8
 496 85 l 1
 365 -46 l 1
 314 5 l 1
 314 83 l 1
 185 -46 l 1
 74 65 l 1
 74 345 l 1
 44 375 l 1
 115 446 l 1
 145 416 l 1
 155 405 l 1
 196 365 l 1
 166 335 l 1
 166 115 l 2
 166 78 215 66 235 46 c 1
 314 125 l 1
 314 345 l 1
 284 375 l 1
 355 446 l 1
 385 416 l 1
 406 395 l 1
 436 365 l 1
 406 335 l 1
 406 175 l 1
 406 55 l 1
 415 46 l 1
 475 106 l 1xd8
EndSplineSet
EndChar
StartChar: asciitilde
Encoding: 126 126 94
Width: 840
Flags: W
HStem: 254 92<362.536 648.05> 279 92<191.95 477.464>
LayerCount: 2
Back
SplineSet
120 275 m 17
 120 275 187 325 240 325 c 27
 380 325 460 300 600 300 c 27
 653 300 720 350 720 350 c 1033
EndSplineSet
Fore
SplineSet
74 250 m 1x40
 145 321 l 1
 145 321 212 371 265 371 c 0x40
 405 371 485 346 625 346 c 0
 678 346 745 396 745 396 c 1
 766 375 l 1
 695 304 l 1
 695 304 628 254 575 254 c 0x80
 435 254 355 279 215 279 c 0
 162 279 95 229 95 229 c 1
 74 250 l 1x40
EndSplineSet
EndChar
StartChar: exclamdown
Encoding: 161 161 200
Width: 360
Flags: W
HStem: 426 20G<155 195> 426 20G<155 195>
VStem: 134 92<-28.5176 175>
LayerCount: 2
Back
SplineSet
210 340 m 25
 150 400 l 1049
210 -140 m 1
 210 -140 193 -116 192 -100 c 24
 182 17 180 200 180 200 c 1
 180 200 176 17 168 -100 c 24
 166 -139 150 -200 150 -200 c 9
 210 -140 l 1
EndSplineSet
Fore
SplineSet
256 -115 m 1x20
 125 -246 l 1
 104 -225 l 1
 104 -225 120 -164 122 -125 c 0
 130 -8 134 175 134 175 c 1
 205 246 l 1
 226 225 l 1
 226 225 228 42 238 -75 c 0
 239 -91 256 -115 256 -115 c 1x20
256 365 m 1
 185 294 l 1
 104 375 l 1
 175 446 l 1xa0
 256 365 l 1
EndSplineSet
EndChar
StartChar: cent
Encoding: 162 162 202
Width: 540
Flags: W
HStem: -196 21G<255 295>
VStem: 74 92<134 195> 254 92<-125 -34 85 307 432 575>
LayerCount: 2
Back
SplineSet
300 600 m 25
 300 -150 l 1049
480 280 m 9
 300 400 l 25
 120 220 l 25
 120 100 l 25
 300 0 l 25
 480 100 l 1041
EndSplineSet
Fore
SplineSet
526 305 m 1
 455 234 l 1
 346 307 l 1
 346 58 l 1
 505 146 l 1
 526 125 l 1
 455 54 l 1
 346 -7 l 1
 346 -125 l 1
 275 -196 l 1
 254 -175 l 1
 254 -34 l 1
 95 54 l 1
 74 75 l 1
 74 195 l 1
 254 375 l 1
 254 575 l 1
 325 646 l 1
 346 625 l 1
 346 432 l 1
 505 326 l 1
 526 305 l 1
254 333 m 1
 224 303 172 251 166 245 c 1
 166 134 l 1
 254 85 l 1
 254 333 l 1
EndSplineSet
EndChar
StartChar: yen
Encoding: 165 165 204
Width: 780
Flags: W
HStem: -196 92<132.023 416.303> -21 92<239.328 511.346> 504 21G<15 54> 554 92<115.988 189.763>
VStem: 194 92<300 539.47> 524 92<-55 -41.502 53 263 305 535>
LayerCount: 2
Back
SplineSet
60 550 m 1
 60 550 101 600 149 600 c 3
 192 600 196 575 240 575 c 1
 240 275 l 1025
120 200 m 17
 120 200 166 250 210 250 c 3
 372 250 390 150 390 150 c 1
 570 330 l 1025
60 -200 m 17
 60 -200 79 -150 300 -150 c 3
 529 -150 450 -200 450 -200 c 9
 570 -80 l 1
 570 570 l 1025
540 600 m 25
 600 540 l 1049
180 -25 m 17
 180 -25 228 25 270 25 c 27
 410 25 490 0 630 0 c 27
 672 0 720 50 720 50 c 1033
EndSplineSet
Fore
SplineSet
155 -71 m 1
 134 -50 l 1
 134 -50 134 -50 135 -49 c 2
 206 22 l 2
 213 29 257 71 295 71 c 0
 386 71 451 60 524 53 c 1
 524 263 l 1
 365 104 l 1
 344 125 l 2
 344 125 341 144 324 165 c 1
 298 186 255 204 185 204 c 0
 151 204 116 175 102 161 c 2
 95 154 l 1
 74 175 l 1
 74 175 75 176 77 178 c 2
 148 249 l 2
 155 256 173 273 194 284 c 1
 194 531 l 1
 169 537 159 554 124 554 c 0
 96 554 71 537 54 522 c 2
 35 504 l 1
 14 525 l 1
 14 525 17 529 22 534 c 2
 93 605 l 2
 94 606 l 0
 109 621 140 646 174 646 c 0
 217 646 221 621 265 621 c 1
 286 600 l 1
 286 300 l 1
 279 293 l 1
 332 286 365 267 385 247 c 2
 406 225 l 2
 407 225 l 0
 414 218 419 210 423 204 c 1
 524 305 l 1
 524 545 l 1
 494 575 l 1
 565 646 l 1
 595 616 l 1
 616 595 l 1
 646 565 l 1
 616 535 l 1
 616 355 l 1
 616 47 l 1
 628 47 642 46 655 46 c 0
 692 46 733 85 742 94 c 2
 745 96 l 1
 766 75 l 2
 766 75 766 75 765 74 c 2
 694 3 l 2
 687 -4 651 -39 616 -45 c 1
 616 -55 l 1
 507 -164 l 2
 506 -166 504 -168 502 -170 c 2
 432 -241 l 2
 429 -244 425 -246 425 -246 c 1
 404 -225 l 1
 415 -214 l 2
 416 -213 417 -211 417 -209 c 0
 395 -202 353 -196 275 -196 c 0
 127 -196 70 -218 48 -233 c 1
 35 -246 l 1
 14 -225 l 1
 14 -225 15 -223 19 -219 c 2
 89 -148 l 2
 102 -135 153 -104 325 -104 c 0
 433 -104 472 -115 484 -127 c 2
 493 -136 l 1
 524 -105 l 1
 524 -43 l 1
 429 -36 356 -21 245 -21 c 0
 208 -21 168 -59 158 -69 c 2
 155 -71 l 1
EndSplineSet
EndChar
StartChar: copyright
Encoding: 169 169 221
Width: 840
Flags: W
HStem: -35 70<302.975 569.44> 100 70<450 493.176> 403 70<509.5 561.664> 480 20G<367.667 407 593 622> 565 70<270.56 537.025>
VStem: 25 70<216.539 413.34> 222 70<236.082 352.422> 362 20<192 381 430 441> 420 70<211 389> 745 70<186.66 383.461>
LayerCount: 2
Back
SplineSet
372 438 m 1
 372 190 l 1025
454.799804688 410 m 1
 454.799804688 190 l 1025
372 465 m 1
 372 465 256.799804688 399 256.799804688 300 c 3
 256.799804688 208 320.400390625 135 439.200195312 135 c 3
 517.200195312 135 603.599609375 218 604.799804688 218 c 1025
372 406 m 1
 372 406 434.400390625 465 474 465 c 3
 516 465 499.200195312 438 537.599609375 438 c 3
 568.799804688 438 585.599609375 465 586.799804688 465 c 1025
60 350 m 0
 60 475 210 600 360 600 c 0
 660 600 780 500 780 250 c 0
 780 125 630 0 480 0 c 0
 180 0 60 100 60 350 c 0
EndSplineSet
Fore
SplineSet
25 329 m 0
 25 383 52 437 96 481 c 2
 153 538 l 2
 211 596 296 635 381 635 c 0
 543 635 654 606 720 540 c 2
 734 525 l 2
 790 469 815 386 815 271 c 0
 815 217 788 163 744 119 c 2
 687 62 l 2
 629 4 544 -35 459 -35 c 0
 297 -35 186 -6 120 60 c 2
 106 75 l 2
 50 131 25 214 25 329 c 0
95 371 m 0
 95 261 118 180 170 124 c 1
 237 63 345 35 501 35 c 0
 572 35 644 63 699 106 c 1
 727 143 745 186 745 229 c 0
 745 339 722 420 670 476 c 1
 603 537 495 565 339 565 c 0
 268 565 196 537 141 494 c 1
 113 457 95 414 95 371 c 0
460 429 m 2
 458 429 456 430 453 430 c 0
 431 430 403 413 382 397 c 1
 382 183 l 1
 394 179 407 175 420 173 c 1
 420 389 l 1
 460 429 l 2
450 171 m 2
 453 171 456 170 460 170 c 0
 538 170 625 253 626 253 c 2
 640 239 l 1
 584 183 l 2
 583 183 496 100 418 100 c 0
 358 100 312 119 281 149 c 2
 266 163 l 2
 236 193 222 234 222 279 c 0
 222 329 251 370 280 399 c 2
 336 455 l 2
 365 484 393 500 393 500 c 1
 407 486 l 1
 382 461 l 1
 382 430 l 1
 393 441 l 1
 393 441 455 500 495 500 c 0
 513 500 521 495 526 490 c 2
 537 479 l 2
 542 476 548 473 559 473 c 0
 574 473 585 480 593 486 c 2
 608 500 l 2
 622 486 l 1
 619 483 619 482 615 478 c 2
 558 421 l 2
 550 413 536 403 517 403 c 0
 502 403 495 407 490 412 c 1
 490 211 l 1
 450 171 l 2
362 441 m 1
 351 430 l 1
 351 430 340 423 325 412 c 1
 306 386 292 356 292 321 c 0
 292 280 305 241 330 213 c 0
 339 205 350 198 362 192 c 1
 362 381 l 1
 355 375 351 371 351 371 c 1
 337 385 l 1
 362 410 l 1
 362 441 l 1
EndSplineSet
EndChar
StartChar: ordfeminine
Encoding: 170 170 210
Width: 480
Flags: W
HStem: 154 92<85 395> 479 92<237.369 314> 576 20G<215 235>
VStem: 314 92<346.14 383 425 479 571 633>
LayerCount: 2
Back
SplineSet
60 200 m 25
 420 200 l 1049
150 520 m 17
 120 610 l 1
 210 700 l 1
 360 675 l 1
 360 330 l 1
 390 300 l 1
 450 360 l 1049
360 450 m 25
 210 300 l 1
 120 390 l 1
 120 460 l 1
 210 550 l 1
 210 550 232.927734376 525 300 525 c 3
 360 525 l 1033
EndSplineSet
Fore
SplineSet
14 175 m 1
 85 246 l 1
 445 246 l 1
 466 225 l 1
 395 154 l 1
 35 154 l 1
 14 175 l 1
193 554 m 1
 235 596 l 1
 235 595 l 2
 239 591 261 573 314 571 c 1
 314 633 l 1
 185 654 l 1
 166 635 l 1
 193 554 l 1
314 383 m 1
 185 254 l 1
 74 365 l 1
 74 435 l 1
 119 480 l 1
 104 495 l 1
 74 585 l 1
 235 746 l 1
 385 721 l 1
 406 700 l 1
 406 550 l 1
 406 475 l 1
 406 355 l 2
 406 351 412 349 415 346 c 2
 475 406 l 1
 496 385 l 1
 365 254 l 1
 314 305 l 1
 314 383 l 1
314 479 m 1
 275 479 l 2
 212 479 189 501 186 504 c 2
 185 504 l 1
 166 485 l 1
 166 415 l 1
 235 346 l 1
 314 425 l 1
 314 479 l 1
EndSplineSet
EndChar
StartChar: plusminus
Encoding: 177 177 213
Width: 720
Flags: W
HStem: -21 92<145 575> 329 92<145 314 406 575>
VStem: 314 92<200 329 421 550>
LayerCount: 2
Back
SplineSet
120 25 m 25
 600 25 l 1049
360 575 m 25
 360 175 l 1049
120 375 m 25
 600 375 l 1049
EndSplineSet
Fore
SplineSet
74 350 m 1
 145 421 l 1
 314 421 l 1
 314 550 l 1
 385 621 l 1
 406 600 l 1
 406 421 l 1
 625 421 l 1
 646 400 l 1
 575 329 l 1
 406 329 l 1
 406 200 l 1
 335 129 l 1
 314 150 l 1
 314 329 l 1
 95 329 l 1
 74 350 l 1
74 0 m 1
 145 71 l 1
 625 71 l 1
 646 50 l 1
 575 -21 l 1
 95 -21 l 1
 74 0 l 1
EndSplineSet
EndChar
StartChar: paragraph
Encoding: 182 182 226
Width: 720
Flags: W
HStem: -196 92<330.289 405 435 529.044> 54 92<216.793 316.547> 554 92<256.508 378.032> 554 67<435.605 456>
VStem: 74 92<216.375 448.162> 405 30<-104.834 172 176 530> 524 92<-50 515>
LayerCount: 2
Back
SplineSet
360 150 m 17
 360 150 348.13838788 100 270 100 c 3
 168 100 120 177.79076131 120 350 c 3
 120 469 170.810673948 600 329 600 c 3
 372 600 394 575 420 575 c 3
 454 575 480 600 481 600 c 1025
420 550 m 1
 420 -125 l 1025
630 600 m 1
 570 540 l 1
 570 -75 l 1025
660 -200 m 1
 660 -200 508 -150 390 -150 c 3
 307 -150 270 -200 270 -200 c 1025
EndSplineSet
Fore
SplineSet
706 -175 m 1xee
 635 -246 l 1
 635 -246 483 -196 365 -196 c 0
 311 -196 277 -217 260 -231 c 2
 245 -246 l 1
 224 -225 l 2
 224 -225 226 -222 230 -218 c 2
 231 -218 l 2
 301 -147 l 2
 314 -134 348 -107 405 -104 c 1
 405 172 l 2
 403 168 400 159 391 150 c 2
 320 80 l 2
 320 79 l 0
 307 66 284 54 245 54 c 0
 206 54 176 65 152 89 c 2
 131 110 l 2
 93 148 74 218 74 325 c 0
 74 397 93 473 142 522 c 2
 212 593 l 2
 245 625 291 646 354 646 c 0xee
 397 646 419 621 445 621 c 0xde
 479 621 505 646 506 646 c 2xee
 527 625 l 1
 456 554 l 2xde
 455 554 448 547 435 540 c 1
 435 -104 l 1
 470 -106 507 -111 542 -118 c 1
 524 -100 l 1
 524 515 l 1
 655 646 l 1
 676 625 l 1
 616 565 l 1
 616 -50 l 1
 547 -119 l 1
 623 -134 685 -154 685 -154 c 1
 706 -175 l 1xee
405 530 m 2
 402 530 398 529 395 529 c 0
 369 529 347 554 304 554 c 0
 263 554 230 545 202 530 c 1
 176 485 166 429 166 375 c 0
 166 278 181 211 212 171 c 1
 234 154 262 146 295 146 c 0
 315 146 330 149 343 154 c 1
 385 196 l 1
 405 176 l 1
 405 530 l 2
EndSplineSet
EndChar
StartChar: questiondown
Encoding: 191 191 201
Width: 480
Flags: W
HStem: 426 20G<215 255> 426 20G<215 255>
VStem: 74 92<-111 -55> 194 92<75 175>
LayerCount: 2
Back
SplineSet
360 -50 m 25
 360 -110 l 25
 270 -200 l 25
 120 -150 l 25
 120 -30 l 29
 240 50 l 25
 240 200 l 1049
270 340 m 25
 210 400 l 1049
EndSplineSet
Fore
SplineSet
316 365 m 1xb0
 245 294 l 1
 164 375 l 1
 235 446 l 1
 316 365 l 1xb0
385 -4 m 1
 406 -25 l 1
 406 -85 l 1
 245 -246 l 1
 95 -196 l 1
 74 -175 l 1
 74 -55 l 1
 145 16 l 1
 194 49 l 1
 194 175 l 1
 265 246 l 1
 286 225 l 1
 286 75 l 1
 215 4 l 1
 166 -29 l 1
 166 -111 l 1
 295 -154 l 1
 314 -135 l 1
 314 -75 l 1
 385 -4 l 1
EndSplineSet
EndChar
StartChar: germandbls
Encoding: 223 223 131
Width: 600
Flags: W
HStem: -246 92<30.8994 87.5 416 417.513> -196 92<-92.514 -32.4385> 294 92<272.872 371.237> 426 20G<196 252.333 425 465> 426 20G<196 252.333 425 465> 604 32<408.669 420.188>
VStem: 104 92<-125 -98 15.9939 330 437 505> 434 92<-125 66>
AnchorPoint: "abvmark" 360 750 basechar 0
LayerCount: 2
Back
SplineSet
180 400 m 1
 180 400 269 340 322 340 c 3
 411 340 420 400 420 400 c 1
 480 340 l 1
 300 200 l 1
 480 100 l 1
 480 -150 l 1
 480 -150 424.000360522 -200 390 -200 c 1
 311 -113 150 0 150 0 c 1025
-150 -200 m 17
 -150 -200 -106 -150 -60 -150 c 8
 -35 -150 33 -200 60 -200 c 24
 86 -200 150 -150 150 -150 c 1
 150 530 l 1
 270 650 l 17
 270 650 300 590 360 590 c 24
 388 590 450 650 451 650 c 1033
EndSplineSet
Fore
SplineSet
-175 -246 m 1xa7
 -196 -225 l 1
 -196 -225 -194 -222 -191 -219 c 2
 -120 -149 l 2
 -120 -148 l 0
 -106 -134 -71 -104 -35 -104 c 0x67
 -10 -104 58 -154 85 -154 c 0xa7
 90 -154 98 -152 104 -149 c 1
 104 -25 l 1
 104 505 l 1
 295 696 l 1
 316 675 l 1
 316 675 320 666 328 656 c 0
 343 645 362 636 385 636 c 0
 413 636 475 696 476 696 c 2
 497 675 l 1
 426 604 l 2
 425 604 363 544 335 544 c 0
 305 544 283 559 268 574 c 2
 247 595 l 2
 245 597 244 598 242 600 c 2
 196 555 l 1
 196 437 l 1
 205 446 l 1
 205 446 294 386 347 386 c 0
 365 386 379 388 391 392 c 1
 445 446 l 1
 526 365 l 1
 455 294 l 1
 365 224 l 1
 505 146 l 1
 526 125 l 1
 526 -125 l 1
 455 -196 l 1x77
 455 -196 399 -246 365 -246 c 1xa7
 344 -225 l 2
 343 -224 342 -222 341 -221 c 0
 339 -219 337 -217 335 -215 c 0
 292 -174 238 -130 196 -98 c 1
 196 -125 l 1
 125 -196 l 1x67
 125 -196 61 -246 35 -246 c 0xa7
 8 -246 -60 -196 -85 -196 c 0x67
 -117 -196 -147 -220 -163 -235 c 2
 -175 -246 l 1xa7
196 330 m 1
 196 31 l 1
 238 1 332 -71 395 -134 c 2
 416 -154 l 2xa7
 421 -154 427 -153 434 -150 c 1
 434 66 l 1
 275 154 l 1
 254 175 l 1
 325 246 l 1
 425 324 l 1
 403 347 l 1
 377 321 l 2
 363 307 338 294 297 294 c 0
 267 294 226 313 196 330 c 1
EndSplineSet
EndChar
StartChar: ae
Encoding: 230 230 189
Width: 660
Flags: W
HStem: 174 92<244.041 314> 426 20G<215 355 485 535> 426 20G<215 355 485 535>
VStem: 314 92<147 174 266 305>
AnchorPoint: "blwmark" 360 0 basechar 0
AnchorPoint: "abvmark" 360 500 basechar 0
LayerCount: 2
Back
SplineSet
150 220 m 17
 120 310 l 1
 210 400 l 1
 360 375 l 1
 360 150 l 9
 210 0 l 1
 120 90 l 1
 120 160 l 1
 210 250 l 1
 210 250 232.928594192 220 300 220 c 3
 360 220 l 1033
600 120 m 9
 480 0 l 25
 360 80 l 25
 360 280 l 25
 480 400 l 25
 600 320 l 1
 360 80 l 1025
EndSplineSet
Fore
SplineSet
406 147 m 1x90
 550 291 l 1
 455 354 l 1
 406 305 l 1
 406 175 l 1
 406 147 l 1x90
410 109 m 1
 505 46 l 1
 625 166 l 1
 646 145 l 1
 455 -46 l 1
 335 34 l 1
 314 55 l 1
 314 83 l 1
 185 -46 l 1
 74 65 l 1
 74 135 l 1
 119 180 l 1
 104 195 l 1
 74 285 l 1
 235 446 l 1
 385 421 l 1
 406 400 l 1
 406 347 l 1
 505 446 l 1xd0
 625 366 l 1
 646 345 l 1
 410 109 l 1
193 254 m 1
 235 296 l 1
 240 291 l 2
 249 283 272 268 314 266 c 1
 314 333 l 1
 185 354 l 1
 166 335 l 1
 193 254 l 1
314 125 m 1
 314 174 l 1
 275 174 l 2
 220 174 195 195 188 202 c 0
 187 202 l 2
 185 204 l 1
 166 185 l 1
 166 115 l 1
 235 46 l 1
 314 125 l 1
EndSplineSet
EndChar
StartChar: dcroat
Encoding: 273 273 319
Width: 480
Flags: W
HStem: 426 20G<245 285> 446 45G<245 285 455 495> 504 92<170.136 286.407>
VStem: 74 92<110 160 202 255> 314 92<145 255 397 400 442 474.342>
AnchorPoint: "blwmark" 240 0 basechar 0
AnchorPoint: "abvmark" 300 700 basechar 0
LayerCount: 2
Back
SplineSet
450 465 m 1
 60 75 l 1025
360 280 m 1
 240 400 l 25
 120 280 l 1
 120 120 l 25
 240 0 l 25
 360 120 l 1
 360 450 l 10
 360 510 293 550 240 550 c 0
 187 550 120 549 120 600 c 27
 120 633 180 670 169 650 c 1049
EndSplineSet
Fore
SplineSet
314 397 m 1xb8
 314 425 l 2
 314 444 308 461 297 475 c 1
 273 493 242 504 215 504 c 0
 175 504 127 504 106 525 c 2
 85 546 l 2
 78 553 74 562 74 575 c 0
 74 588 83 602 93 612 c 2
 164 683 l 2
 165 683 l 2
 178 696 192 704 195 701 c 2
 216 680 l 2
 217 679 216 678 215 675 c 2
 166 626 l 2
 166 625 l 0
 166 618 167 613 169 608 c 0
 193 596 232 596 265 596 c 0
 297 596 333 582 357 558 c 0
 357 557 l 1
 358 557 l 1
 379 536 l 2
 395 520 406 499 406 475 c 2
 406 442 l 1
 475 511 l 1
 496 490 l 1
 406 400 l 1
 406 145 l 1
 215 -46 l 1
 88 82 l 1
 35 29 l 1
 14 50 l 1
 74 110 l 1
 74 255 l 1
 265 446 l 1
 314 397 l 1xb8
267 303 m 1
 215 354 l 1
 166 305 l 1
 166 202 l 1
 267 303 l 1
288 282 m 1
 166 160 l 1
 166 145 l 2
 166 92 236 75 265 46 c 1
 314 95 l 1
 314 255 l 1
 288 282 l 1
EndSplineSet
EndChar
StartChar: lslash
Encoding: 322 322 291
Width: 240
Flags: W
HStem: 456 20G<215 255> 651 20G<95 134.512>
VStem: 74 92<65 273 315 365 407 560>
LayerCount: 2
Back
SplineSet
210 430 m 25
 30 250 l 1049
90 60 m 25
 150 0 l 25
 210 60 l 1049
90 625 m 25
 150 565 l 1049
120 595 m 9
 120 30 l 1049
EndSplineSet
Fore
SplineSet
44 600 m 1
 115 671 l 1
 155 630 l 1
 166 620 l 1
 196 590 l 1
 166 560 l 1
 166 407 l 1
 235 476 l 1
 256 455 l 1
 166 365 l 1
 166 55 l 1
 175 46 l 1
 235 106 l 1
 256 85 l 1
 125 -46 l 1
 44 35 l 1
 74 65 l 1
 74 273 l 1
 5 204 l 1
 -16 225 l 1
 74 315 l 1
 74 570 l 1
 44 600 l 1
EndSplineSet
EndChar
StartChar: Eng
Encoding: 330 330 599
Width: 840
Flags: W
HStem: -196 92<132.023 468.811> -46 21G<15 50 291 325> 4 92<119.651 224.423> 504 21G<15 54> 554 92<115.988 198.032> 554 67<255.605 276>
VStem: 225 30<95 530> 344 92<85 515> 644 92<-55 440>
AnchorPoint: "abvmark" 480 700 basechar 0
LayerCount: 2
Back
SplineSet
60 550 m 1
 60 550 101 600 149 600 c 3
 192 600 214 575 240 575 c 3
 274 575 300 600 301 600 c 1025
240 550 m 1
 240 75 l 1025
60 0 m 17
 60 0 97 50 180 50 c 3
 298 50 330 0 330 0 c 1
 390 60 l 1
 390 540 l 1
 450 600 l 1
 690 475 l 1
 690 -80 l 1
 570 -200 l 1
 570 -200 494 -150 300 -150 c 3
 79 -150 60 -200 60 -200 c 1033
EndSplineSet
Fore
SplineSet
35 -46 m 1xfb80
 14 -25 l 1
 14 -25 17 -22 21 -18 c 2
 91 53 l 2
 105 67 142 96 205 96 c 0
 212 96 219 95 225 95 c 1
 225 530 l 2
 222 530 218 529 215 529 c 0
 189 529 167 554 124 554 c 0
 96 554 71 537 54 522 c 2
 35 504 l 1
 14 525 l 1
 14 525 17 529 22 534 c 2
 93 605 l 2
 94 606 l 0
 109 621 140 646 174 646 c 0xfb80
 217 646 239 621 265 621 c 0xf780
 299 621 325 646 326 646 c 2xfb80
 347 625 l 1
 276 554 l 2xf780
 275 554 268 547 255 540 c 1
 255 92 l 1
 304 85 331 68 344 57 c 1
 344 515 l 1
 475 646 l 1
 715 521 l 1
 736 500 l 1
 736 -55 l 1
 545 -246 l 1
 545 -246 469 -196 275 -196 c 0
 127 -196 70 -218 48 -233 c 1
 35 -246 l 1
 14 -225 l 2
 14 -225 15 -223 19 -219 c 2
 89 -148 l 2
 102 -135 153 -104 325 -104 c 0
 519 -104 595 -154 595 -154 c 1
 644 -105 l 1
 644 440 l 1
 436 548 l 1
 436 85 l 1
 305 -46 l 1
 291 -32 l 2
 272 -17 232 4 155 4 c 0
 102 4 68 -16 50 -31 c 2
 35 -46 l 1xfb80
EndSplineSet
EndChar
StartChar: longs
Encoding: 383 383 95
Width: 360
Flags: W
HStem: -246 92<30.8994 87.5> -196 92<-92.514 -32.4385> 604 32<408.669 420.188>
VStem: 104 92<-125 505>
AnchorPoint: "abvmark" 210 700 basechar 0
LayerCount: 2
Back
SplineSet
-150 -200 m 17
 -150 -200 -106 -150 -60 -150 c 8
 -35 -150 33 -200 60 -200 c 24
 86 -200 150 -150 150 -150 c 1
 150 530 l 1
 270 650 l 17
 270 650 300 590 360 590 c 24
 388 590 450 650 451 650 c 1033
EndSplineSet
Fore
SplineSet
-175 -246 m 1xb0
 -196 -225 l 1
 -196 -225 -194 -222 -191 -219 c 2
 -120 -149 l 2
 -120 -148 l 0
 -106 -134 -71 -104 -35 -104 c 0x70
 -10 -104 58 -154 85 -154 c 0xb0
 90 -154 98 -152 104 -149 c 1
 104 505 l 1
 295 696 l 1
 316 675 l 1
 316 675 320 666 328 656 c 0
 343 645 362 636 385 636 c 0
 413 636 475 696 476 696 c 2
 497 675 l 1
 426 604 l 2
 425 604 363 544 335 544 c 0
 305 544 283 559 268 574 c 2
 247 595 l 2
 245 597 244 598 242 600 c 2
 196 555 l 1
 196 -125 l 1
 125 -196 l 1x70
 125 -196 61 -246 35 -246 c 0xb0
 8 -246 -60 -196 -85 -196 c 0x70
 -117 -196 -147 -220 -163 -235 c 2
 -175 -246 l 1xb0
EndSplineSet
EndChar
StartChar: florin
Encoding: 402 402 260
Width: 480
Flags: W
HStem: -246 92<30.0859 90.1573> -196 92<-92.514 -30.0859> 354 92<145 197 297 395> 544 92<441.234 505.732>
LayerCount: 2
Back
SplineSet
-150 -200 m 17
 -150 -200 -106 -150 -60 -150 c 8
 -9 -150 9 -200 60 -200 c 24
 100 -200 150 -150 150 -150 c 1
 270 530 l 1
 390 650 l 17
 390 650 438 590 480 590 c 24
 522 590 570 650 571 650 c 1033
120 400 m 25
 420 400 l 1049
EndSplineSet
Fore
SplineSet
74 375 m 1xb0
 145 446 l 1
 214 446 l 1
 224 505 l 1
 415 696 l 1
 436 675 l 1
 436 675 438 672 442 668 c 0
 460 652 483 636 505 636 c 0
 526 636 549 652 566 666 c 2
 595 696 l 2
 596 696 l 2
 617 675 l 1
 616 673 l 2
 614 671 609 666 602 659 c 2
 601 658 l 2
 530 587 l 2
 512 569 482 544 455 544 c 0
 428 544 400 568 382 586 c 2
 364 603 l 1
 316 555 l 1
 297 446 l 1
 445 446 l 1
 466 425 l 1
 395 354 l 1
 281 354 l 1
 196 -125 l 1
 125 -196 l 1x70
 125 -196 75 -246 35 -246 c 0xb0
 -16 -246 -34 -196 -85 -196 c 0x70
 -117 -196 -147 -220 -163 -235 c 2
 -175 -246 l 1xb0
 -196 -225 l 1
 -196 -225 -194 -222 -191 -219 c 2
 -120 -149 l 2
 -120 -148 l 0
 -106 -134 -71 -104 -35 -104 c 0x70
 16 -104 34 -154 85 -154 c 0
 93 -154 102 -152 109 -149 c 1
 197 354 l 1
 95 354 l 1
 74 375 l 1xb0
EndSplineSet
EndChar
StartChar: ascript
Encoding: 593 593 348
Width: 480
Flags: W
HStem: 426 20G<245 285 365 405> 426 20G<245 285 365 405>
VStem: 74 92<78.0295 255> 314 92<55 83 125 326>
AnchorPoint: "blwmark" 240 0 basechar 0
AnchorPoint: "abvmark" 270 500 basechar 0
LayerCount: 2
Back
SplineSet
450 60 m 25
 390 0 l 1
 360 30 l 1
 360 400 l 1
 360 400 334 352 300 352 c 0
 266 352 240 400 240 400 c 9
 120 280 l 1
 120 90 l 17
 210 0 l 1
 360 150 l 1049
EndSplineSet
Fore
SplineSet
314 326 m 1x30
 304 316 290 306 275 306 c 0
 260 306 247 315 237 325 c 2
 216 347 l 2
 215 347 l 0
 214 348 213 350 212 351 c 2
 166 305 l 1
 166 115 l 2
 166 78 215 66 235 46 c 1
 314 125 l 1
 314 326 l 1x30
314 83 m 1
 185 -46 l 1
 74 65 l 1
 74 255 l 1
 265 446 l 1
 286 425 l 1
 286 425 290 417 297 408 c 0
 305 402 315 398 325 398 c 0
 330 398 335 399 340 401 c 2
 385 446 l 1xb0
 406 425 l 1
 406 55 l 1
 415 46 l 1
 475 106 l 1
 496 85 l 1
 365 -46 l 1
 314 5 l 1
 314 83 l 1
EndSplineSet
EndChar
StartChar: caron
Encoding: 711 711 245
Width: 480
Flags: W
HStem: 479 267
VStem: 74 332
LayerCount: 2
Back
SplineSet
120 700 m 25
 120 700 240 625 240 525 c 1
 240 675 360 700 360 700 c 1025
EndSplineSet
Fore
SplineSet
252 643 m 1
 314 705 l 2
 347 738 385 746 385 746 c 1
 406 725 l 1
 335 654 l 2
 335 654 323 652 306 643 c 0
 305 642 304 638 303 636 c 0
 293 613 286 585 286 550 c 1
 215 479 l 1
 194 500 l 1
 194 518 190 535 184 551 c 0
 174 577 157 600 140 619 c 0
 116 641 95 654 95 654 c 1
 74 675 l 1
 145 746 l 1
 145 746 172 729 200 701 c 2
 222 679 l 0
 232 669 242 656 252 643 c 1
EndSplineSet
EndChar
StartChar: ring
Encoding: 730 730 184
Width: 480
Flags: W
HStem: 479 92<205.275 313.855> 679 92<166.145 274.725>
VStem: 74 92<605.419 678.498> 314 92<571.502 644.581>
LayerCount: 2
Back
SplineSet
120 650 m 0
 120 710 138 725 210 725 c 0
 300 725 360 675 360 600 c 0
 360 540 342 525 270 525 c 0
 180 525 120 575 120 650 c 0
EndSplineSet
Fore
SplineSet
74 625 m 0
 74 653 78 672 89 683 c 2
 160 754 l 2
 173 767 197 771 235 771 c 0
 285 771 325 755 351 729 c 2
 373 708 l 1
 394 687 406 658 406 625 c 0
 406 597 402 578 391 567 c 2
 320 496 l 2
 307 483 283 479 245 479 c 0
 195 479 155 495 129 521 c 2
 107 542 l 1
 86 563 74 592 74 625 c 0
166 675 m 0
 166 647 174 623 189 603 c 1
 215 583 252 571 295 571 c 0
 302 571 308 571 314 571 c 0
 314 572 314 574 314 575 c 0
 314 603 306 627 291 647 c 1
 265 667 228 679 185 679 c 0
 178 679 172 679 166 679 c 0
 166 678 166 676 166 675 c 0
EndSplineSet
EndChar
StartChar: Germandbls
Encoding: 7838 7838 136
Width: 840
Flags: W
HStem: -156 92<326.431 499.202> -46 21G<15 50 291 325> 4 92<119.651 224.423> 504 21G<15 54> 554 92<115.988 198.032> 554 67<255.605 276>
VStem: 225 30<95 530> 344 92<85 515> 674 92<-85 188 420 439>
AnchorPoint: "abvmark" 480 700 basechar 0
LayerCount: 2
Back
SplineSet
60 0 m 17
 60 0 97 50 180 50 c 3
 298 50 330 0 330 0 c 1
 390 60 l 1
 390 540 l 1
 450 600 l 1
 720 475 l 1
 720 395 l 1
 600 275 l 9
 720 225 l 25
 720 -110 l 25
 630 -200 l 1
 599 -160 500.505859376 -110 420 -110 c 3
 265.80476195 -110 210 -200 210 -200 c 1025
60 550 m 1
 60 550 101 600 149 600 c 3
 192 600 214 575 240 575 c 3
 274 575 300 600 301 600 c 1025
240 550 m 1
 240 75 l 1025
EndSplineSet
Fore
SplineSet
35 504 m 1xfb80
 14 525 l 1
 14 525 17 529 22 534 c 2
 93 605 l 2
 94 606 l 0
 109 621 140 646 174 646 c 0xfb80
 217 646 239 621 265 621 c 0xf780
 299 621 325 646 326 646 c 2xfb80
 347 625 l 1
 276 554 l 2xf780
 275 554 268 547 255 540 c 1
 255 92 l 1
 304 85 331 68 344 57 c 1
 344 515 l 1
 475 646 l 1
 745 521 l 1
 766 500 l 1
 766 420 l 1
 655 308 l 1
 745 271 l 1
 766 250 l 1
 766 -85 l 1
 605 -246 l 1
 585 -226 l 1
 543 -191 463 -156 395 -156 c 0
 312 -156 257 -182 225 -206 c 1
 185 -246 l 1
 164 -225 l 1
 164 -225 169 -217 181 -205 c 2
 252 -134 l 2
 279 -107 338 -64 445 -64 c 0
 519 -64 608 -106 646 -144 c 2
 655 -154 l 1
 674 -135 l 1
 674 188 l 1
 575 229 l 1
 554 250 l 1
 674 370 l 1
 674 439 l 1
 436 549 l 1
 436 85 l 1
 305 -46 l 1
 291 -32 l 2
 272 -17 232 4 155 4 c 0
 102 4 68 -16 50 -31 c 2
 35 -46 l 1
 14 -25 l 1
 14 -25 17 -22 21 -18 c 2
 91 53 l 2
 105 67 142 96 205 96 c 0
 212 96 219 95 225 95 c 1
 225 530 l 2
 222 530 218 529 215 529 c 0
 189 529 167 554 124 554 c 0
 96 554 71 537 54 522 c 2
 35 504 l 1xfb80
EndSplineSet
EndChar
StartChar: figuredash
Encoding: 8210 8210 908
Width: 480
Flags: W
HStem: 154 92<145 335>
VStem: 74 332
LayerCount: 2
Back
SplineSet
120 200 m 25
 360 200 l 1049
EndSplineSet
Fore
SplineSet
74 175 m 1
 145 246 l 1
 385 246 l 1
 406 225 l 1
 335 154 l 1
 95 154 l 1
 74 175 l 1
EndSplineSet
EndChar
StartChar: quotereversed
Encoding: 8219 8219 928
Width: 360
Flags: W
HStem: 354 302
VStem: 104 182
LayerCount: 2
Back
SplineSet
210 610 m 25
 150 550 l 1
 150 490 l 25
 240 400 l 1049
EndSplineSet
Fore
SplineSet
185 656 m 1
 256 585 l 1
 196 525 l 1
 196 465 l 2
 196 465 213 448 215 446 c 2
 286 375 l 1
 265 354 l 1
 104 515 l 1
 104 575 l 1
 185 656 l 1
EndSplineSet
EndChar
StartChar: quotedblright
Encoding: 8221 8221 252
Width: 600
Flags: W
HStem: 354 302
LayerCount: 2
Back
SplineSet
390 610 m 25
 450 550 l 1
 450 490 l 25
 360 400 l 1049
150 610 m 25
 210 550 l 1
 210 490 l 25
 120 400 l 1049
EndSplineSet
Fore
SplineSet
104 585 m 1
 175 656 l 1
 256 575 l 1
 256 515 l 1
 95 354 l 1
 74 375 l 1
 164 465 l 1
 164 525 l 1
 104 585 l 1
344 585 m 1
 415 656 l 1
 496 575 l 1
 496 515 l 1
 335 354 l 1
 314 375 l 1
 404 465 l 1
 404 525 l 1
 344 585 l 1
EndSplineSet
EndChar
StartChar: quotedblrev
Encoding: 8223 8223 929
Width: 600
Flags: W
HStem: 354 302
LayerCount: 2
Back
SplineSet
210 610 m 25
 150 550 l 1
 150 490 l 25
 240 400 l 1049
450 610 m 25
 390 550 l 1
 390 490 l 25
 480 400 l 1049
EndSplineSet
Fore
SplineSet
425 656 m 1
 496 585 l 1
 436 525 l 1
 436 465 l 2
 436 465 453 448 455 446 c 2
 526 375 l 1
 505 354 l 1
 344 515 l 1
 344 575 l 1
 425 656 l 1
185 656 m 1
 256 585 l 1
 196 525 l 1
 196 465 l 2
 196 465 213 448 215 446 c 2
 286 375 l 1
 265 354 l 1
 104 515 l 1
 104 575 l 1
 185 656 l 1
EndSplineSet
EndChar
StartChar: dagger
Encoding: 8224 8224 262
Width: 480
Flags: W
HStem: -196 21G<195 235> 426 20G<65 105 305.909 405> 426 20G<65 105 305.909 405>
VStem: 181 117<66.8608 316 424 514.951> 194 92<-125 77.5373>
LayerCount: 2
Back
SplineSet
60 400 m 25
 120 340 l 25
 360 400 l 25
 420 340 l 1049
210 540 m 1
 210 540 226 455 228 400 c 24
 238 186 240 -150 240 -150 c 1
 240 -150 244 186 252 400 c 24
 256 478 270 600 270 600 c 9
 210 540 l 1
EndSplineSet
Fore
SplineSet
164 515 m 1xd0
 295 646 l 1
 316 625 l 1
 316 625 302 503 298 425 c 0
 298 424 l 2xd0
 385 446 l 1
 466 365 l 1
 395 294 l 1
 335 354 l 1
 295 344 l 1
 289 136 286 -125 286 -125 c 2
 215 -196 l 1
 194 -175 l 1xc8
 194 -175 192 104 184 316 c 1
 95 294 l 1
 14 375 l 1
 85 446 l 1
 145 386 l 1
 181 395 l 1
 177 448 164 515 164 515 c 1xd0
EndSplineSet
EndChar
StartChar: bullet
Encoding: 8226 8226 259
Width: 360
Flags: W
HStem: 189 202
VStem: 79 202
LayerCount: 2
Back
SplineSet
155 345 m 25
 235 265 l 25
 205 235 l 25
 125 315 l 25
 155 345 l 25
EndSplineSet
Fore
SplineSet
180 391 m 1
 281 290 l 1
 180 189 l 1
 79 290 l 1
 180 391 l 1
EndSplineSet
EndChar
StartChar: refmark
Encoding: 8251 8251 953
Width: 720
Flags: W
HStem: 546 5G<125 169 365 405 601 645>
LayerCount: 2
Back
SplineSet
600 500 m 25
 120 100 l 1049
120 500 m 25
 600 100 l 1049
570 350 m 25
 630 290 l 1049
300 135 m 25
 360 75 l 1049
360 525 m 25
 420 465 l 1049
90 310 m 25
 150 250 l 1049
EndSplineSet
Fore
SplineSet
44 285 m 1
 115 356 l 1
 196 275 l 1
 125 204 l 1
 44 285 l 1
314 500 m 1
 385 571 l 1
 466 490 l 1
 395 419 l 1
 314 500 l 1
254 110 m 1
 325 181 l 1
 406 100 l 1
 335 29 l 1
 254 110 l 1
524 325 m 1
 595 396 l 1
 676 315 l 1
 605 244 l 1
 524 325 l 1
74 475 m 1
 145 546 l 1
 385 346 l 1
 625 546 l 1
 646 525 l 1
 575 454 l 1
 415 321 l 1
 625 146 l 1
 646 125 l 1
 575 54 l 1
 335 254 l 1
 95 54 l 1
 74 75 l 1
 145 146 l 1
 305 279 l 1
 95 454 l 1
 74 475 l 1
EndSplineSet
EndChar
StartChar: fraction
Encoding: 8260 8260 217
Width: 840
Flags: W
LayerCount: 2
Back
SplineSet
120 0 m 25
 720 700 l 1049
EndSplineSet
Fore
SplineSet
95 -46 m 1
 74 -25 l 1
 674 675 l 1
 745 746 l 1
 766 725 l 1
 166 25 l 1
 95 -46 l 1
EndSplineSet
EndChar
StartChar: dotcross
Encoding: 8284 8284 954
Width: 720
Flags: W
HStem: 254 92<85 314 406 635> 501 20G<155 195 365 405 515 555>
VStem: 314 92<75 254 346 525>
LayerCount: 2
Back
SplineSet
360 550 m 25
 360 50 l 1049
60 300 m 25
 660 300 l 1049
510 475 m 25
 570 415 l 1049
510 185 m 25
 570 125 l 1049
150 475 m 25
 210 415 l 1049
150 185 m 25
 210 125 l 1049
EndSplineSet
Fore
SplineSet
104 160 m 1
 175 231 l 1
 256 150 l 1
 185 79 l 1
 104 160 l 1
104 450 m 1
 175 521 l 1
 256 440 l 1
 185 369 l 1
 104 450 l 1
464 160 m 1
 535 231 l 1
 616 150 l 1
 545 79 l 1
 464 160 l 1
464 450 m 1
 535 521 l 1
 616 440 l 1
 545 369 l 1
 464 450 l 1
14 275 m 1
 85 346 l 1
 314 346 l 1
 314 525 l 1
 385 596 l 1
 406 575 l 1
 406 346 l 1
 685 346 l 1
 706 325 l 1
 635 254 l 1
 406 254 l 1
 406 75 l 1
 335 4 l 1
 314 25 l 1
 314 254 l 1
 35 254 l 1
 14 275 l 1
EndSplineSet
EndChar
StartChar: FleuronCenter
Encoding: 10086 10086 955
Width: 840
Flags: W
HStem: -46 542<265 395> 529 92<586 725> 538 94<394.714 471 579.79 685.889> 554 92<115 249.188>
VStem: 44 392<98.5 295>
LayerCount: 2
Back
SplineSet
480 700 m 1
 480 700 540 644 540 600 c 27
 540 521 420 425 420 425 c 1025
60 575 m 25
 90 600 l 25
 750 575 l 25
 780 600 l 1049
660 100 m 1
 660 100 551 0 420 0 c 3
 275 0 90 141 90 300 c 27
 90 376 149 450 240 450 c 27
 314 450 360 325 360 325 c 1
 360 325 406 450 480 450 c 27
 546 450 600 399 600 350 c 3
 600 277.78125 523.607421876 243.705078124 450 200 c 8
 398 169 390 128 390 75 c 19
 390 47.953970399 450 25 450 25 c 1025
EndSplineSet
Fore
SplineSet
495 51 m 1xc8
 603 71 685 146 685 146 c 1
 706 125 l 1
 635 54 l 1
 635 54 526 -46 395 -46 c 0
 382 -46 369 -45 355 -43 c 0
 285 -31 210 9 154 65 c 2
 132 86 l 2
 80 139 44 205 44 275 c 0
 44 315 61 354 89 382 c 2
 159 453 l 2
 185 479 222 496 265 496 c 0
 289 496 309 483 326 466 c 2
 348 445 l 1
 348 444 l 0
 360 432 371 419 379 405 c 1
 445 471 l 1
 445 472 l 0
 462 492 477 515 486 538 c 1xa8
 65 554 l 1x98
 35 529 l 1
 14 550 l 1
 85 621 l 1xc8
 115 646 l 1x98
 471 632 l 1xa8
 461 646 449 659 442 667 c 2
 434 675 l 1
 505 746 l 1
 505 746 507 744 509 742 c 2
 530 721 l 2
 543 708 584 664 586 628 c 1
 775 621 l 1xc8
 805 646 l 1
 826 625 l 1
 755 554 l 1x98
 725 529 l 1
 549 536 l 1
 538 521 526 508 515 496 c 1
 547 493 576 479 596 459 c 2
 617 437 l 2
 635 419 646 397 646 375 c 0
 646 346 633 322 613 302 c 2
 543 232 l 2
 542 231 l 2
 517 206 480 186 444 165 c 1
 437 145 436 124 436 100 c 0
 436 97 438 93 439 90 c 0
 456 79 475 71 475 71 c 2
 495 51 l 1xc8
EndSplineSet
EndChar
StartChar: ruslst
Encoding: 11789 11789 903
Width: 360
Flags: W
VStem: 14 332
LayerCount: 2
Back
SplineSet
60 450 m 25
 300 700 l 1049
EndSplineSet
Fore
SplineSet
35 404 m 1
 14 425 l 1
 254 675 l 1
 325 746 l 1
 346 725 l 1
 106 475 l 1
 35 404 l 1
EndSplineSet
EndChar
StartChar: rlslst
Encoding: 11804 11804 904
Width: 360
Flags: W
HStem: -196 21G<255 295>
VStem: 14 332
LayerCount: 2
Back
SplineSet
60 100 m 25
 300 -150 l 1049
EndSplineSet
Fore
SplineSet
85 146 m 1
 106 125 l 1
 346 -125 l 1
 275 -196 l 1
 254 -175 l 1
 14 75 l 1
 85 146 l 1
EndSplineSet
EndChar
StartChar: barquillleft
Encoding: 11808 11808 920
Width: 360
Flags: W
HStem: -196 21G<75 115> 254 92<166 275>
VStem: 74 92<-125 254 346 675>
LayerCount: 2
Back
SplineSet
300 300 m 25
 120 300 l 1049
120 700 m 25
 120 -150 l 1049
EndSplineSet
Fore
SplineSet
145 746 m 1
 166 725 l 1
 166 346 l 1
 325 346 l 1
 346 325 l 1
 275 254 l 1
 166 254 l 1
 166 -125 l 1
 95 -196 l 1
 74 -175 l 1
 74 275 l 1
 74 675 l 1
 145 746 l 1
EndSplineSet
EndChar
StartChar: brackettopleft
Encoding: 11810 11810 922
Width: 360
Flags: W
HStem: 654 92<166 275>
VStem: 74 92<325 654>
LayerCount: 2
Back
SplineSet
300 700 m 25
 120 700 l 17
 120 300 l 1025
EndSplineSet
Fore
SplineSet
346 725 m 1
 275 654 l 1
 166 654 l 1
 166 325 l 1
 95 254 l 1
 74 275 l 1
 74 675 l 1
 145 746 l 1
 325 746 l 1
 346 725 l 1
EndSplineSet
EndChar
StartChar: Ubracketleft
Encoding: 11814 11814 912
Width: 600
Flags: W
HStem: -46 92<278.081 515> 354 92<276.254 515>
VStem: 74 92<142.415 257.537>
LayerCount: 2
Back
SplineSet
540 400 m 1
 360 400 l 26
 228 400 120 310 120 200 c 27
 120 90 228 0 360 0 c 26
 540 0 l 1025
EndSplineSet
Fore
SplineSet
586 425 m 1
 515 354 l 1
 335 354 l 2
 281 354 231 339 191 314 c 1
 175 287 166 257 166 225 c 0
 166 182 183 141 211 108 c 1
 255 70 317 46 385 46 c 2
 565 46 l 1
 586 25 l 1
 515 -46 l 1
 335 -46 l 2
 261 -46 195 -18 151 26 c 2
 130 48 l 2
 95 83 74 127 74 175 c 0
 74 223 95 268 130 303 c 2
 200 374 l 2
 244 418 311 446 385 446 c 2
 565 446 l 1
 586 425 l 1
EndSplineSet
EndChar
StartChar: avslash
Encoding: 42811 42811 861
Width: 720
Flags: W
HStem: 179 92<237.369 314> 204 92<406 554> 426 20G<215 355> 426 20G<215 355 630.5 651>
VStem: 314 92<145 179 296 333> 494 92<438.293 499.5> 517 69<458.485 497> 554 92<145 204 296 345>
AnchorPoint: "abvmark" 360 500 basechar 0
AnchorPoint: "blwmark" 360 0 basechar 0
LayerCount: 2
Back
SplineSet
360 250 m 25
 660 250 l 1049
360 150 m 9
 210 0 l 1
 120 90 l 1
 120 160 l 1
 210 250 l 1
 210 250 232.928594192 225 300 225 c 3
 360 225 l 1033
606 550 m 17
 604 550 540 521 540 472 c 16
 540 423 600 370 600 370 c 9
 600 120 l 1
 480 0 l 25
 360 120 l 1
 360 375 l 17
 210 400 l 1
 120 310 l 1
 150 220 l 1033
EndSplineSet
Fore
SplineSet
652 575 m 1x6a
 588 510 l 2
 587 505 586 502 586 497 c 0x6c
 586 464 612 429 630 410 c 2
 646 395 l 1
 646 296 l 1
 685 296 l 1
 706 275 l 1
 646 215 l 1
 646 145 l 1
 455 -46 l 1
 320 89 l 1
 185 -46 l 1
 74 65 l 1
 74 135 l 1
 119 180 l 1
 104 195 l 1
 74 285 l 1
 235 446 l 1
 385 421 l 1
 406 400 l 1
 406 296 l 1
 554 296 l 1
 554 345 l 1x69
 546 353 l 2
 530 369 494 409 494 447 c 0x6c
 494 467 504 483 517 496 c 0
 517 497 l 2
 588 567 l 2
 607 585 630 596 631 596 c 2
 652 575 l 1x6a
314 125 m 1
 314 179 l 1
 275 179 l 2x88
 212 179 189 201 186 204 c 2
 185 204 l 1
 166 185 l 1
 166 115 l 1
 235 46 l 1
 314 125 l 1
314 271 m 1
 314 333 l 1
 185 354 l 2
 185 354 168 337 166 335 c 2
 193 254 l 1
 235 296 l 1x48
 235 295 l 2
 239 291 261 273 314 271 c 1
406 175 m 1
 406 145 l 1
 505 46 l 1
 554 95 l 1
 554 204 l 1x49
 406 204 l 1
 406 175 l 1
EndSplineSet
EndChar
StartChar: tum
Encoding: 42871 42871 728
Width: 720
Flags: W
HStem: -196 21G<315 358.889> 304 92<203.947 494> 327 80<586 629.977> 426 20G<65 104 681 705> 426 20G<65 104 155 195 485 553 681 705>
VStem: 104 92<57.9004 319 440 525> 494 92<116.859 309 407 463>
LayerCount: 2
Back
SplineSet
60 400 m 1049,0,0
150 550 m 1,0,0
 150 60 l 1,0,0
 210 0 l 1,0,0
 330 120 l 1025,0,0
480 525 m 1,0,0
 540 500 l 1,0,0
 540 500 540 406 540 250 c 3,0,0
 540 -37.501953125 360 -150 360 -150 c 1025,0,0
660 400 m 1,0,0
 660 400 622 350 420 350 c 3,0,0
 208 350 60 400 60 400 c 1025,0,0
EndSplineSet
Fore
SplineSet
685 446 m 1xb6
 706 425 l 1
 706 425 706 424 705 423 c 2
 634 352 l 2
 630 348 617 337 586 327 c 1xb6
 586 275 l 2
 586 79 502 -36 449 -89 c 2
 379 -159 l 1
 378 -160 l 2
 353 -185 335 -196 335 -196 c 2
 314 -175 l 1
 385 -104 l 1
 385 -104 388 -102 392 -99 c 0
 440 -37 494 68 494 225 c 2
 494 309 l 1
 466 306 434 304 395 304 c 0
 319 304 252 311 196 319 c 1
 196 85 l 2
 196 65 224 57 235 46 c 1
 355 166 l 1
 376 145 l 1
 185 -46 l 1
 104 35 l 1
 104 336 l 1
 60 346 35 354 35 354 c 2
 14 375 l 1
 85 446 l 1
 85 446 91 444 104 440 c 1
 104 525 l 1
 175 596 l 1
 196 575 l 1
 196 419 l 1
 259 407 345 396 445 396 c 0xd6
 463 396 479 396 494 397 c 1
 494 463 l 1
 455 479 l 1
 434 500 l 1
 505 571 l 1
 565 546 l 1
 586 525 l 1
 586 407 l 1
 648 418 673 436 681 443 c 2
 685 446 l 1xb6
EndSplineSet
EndChar
StartChar: hbar_longs
Encoding: 59335 59335 963
Width: 510
Flags: W
HStem: -246 92<30.8994 87.5> -196 92<-92.514 -32.4385> 426 20G<305 345> 426 20G<305 345> 429 92<55 104 196 215> 604 32<408.669 420.188>
VStem: 104 92<-125 275 317 429> 344 92<65 321.97>
LayerCount: 2
Back
SplineSet
360 60 m 25
 420 0 l 1049
390 30 m 25
 390 310 l 25
 300 400 l 1
 150 250 l 1049
-150 -200 m 17
 -150 -200 -106 -150 -60 -150 c 8
 -35 -150 33 -200 60 -200 c 24
 86 -200 150 -150 150 -150 c 1
 150 530 l 1
 270 650 l 17
 270 650 300 590 360 590 c 24
 388 590 450 650 451 650 c 1033
240 475 m 25
 30 475 l 1049
EndSplineSet
Fore
SplineSet
286 500 m 1x8f
 215 429 l 1
 196 429 l 1x8f
 196 317 l 1
 325 446 l 1
 436 335 l 1
 436 55 l 1
 466 25 l 1
 395 -46 l 1
 365 -16 l 1
 344 5 l 1
 314 35 l 1
 344 65 l 1
 344 285 l 2
 344 322 295 334 275 354 c 1
 196 275 l 1
 196 -125 l 1
 125 -196 l 1x67
 125 -196 61 -246 35 -246 c 0x87
 8 -246 -60 -196 -85 -196 c 0x47
 -117 -196 -147 -220 -163 -235 c 2
 -175 -246 l 1x87
 -196 -225 l 1
 -196 -225 -194 -222 -191 -219 c 2
 -120 -149 l 2
 -120 -148 l 0
 -106 -134 -71 -104 -35 -104 c 0x47
 -10 -104 58 -154 85 -154 c 0
 90 -154 98 -152 104 -149 c 1
 104 225 l 1
 104 429 l 1
 5 429 l 1
 -16 450 l 1
 55 521 l 1
 120 521 l 1
 295 696 l 1
 316 675 l 1
 316 675 320 666 328 656 c 0
 343 645 362 636 385 636 c 0
 413 636 475 696 476 696 c 2
 497 675 l 1
 426 604 l 2
 425 604 363 544 335 544 c 0
 305 544 283 559 268 574 c 2
 247 595 l 2
 245 597 244 598 242 600 c 2
 196 555 l 1
 196 521 l 1
 265 521 l 1
 286 500 l 1x8f
EndSplineSet
LCarets2: 1 270 
Ligature2: "Historic ligatures-1" hbar longs
EndChar
StartChar: kbar_longs
Encoding: 59336 59336 962
Width: 510
Flags: W
HStem: -246 92<30.8994 87.5> -196 92<-92.514 -32.4385> 429 92<55 104 196 215> 451 20G<365 405> 604 32<408.669 420.188>
VStem: 104 92<-125 198 259 429> 344 92<65 167>
LayerCount: 2
Back
SplineSet
-150 -200 m 17
 -150 -200 -106 -150 -60 -150 c 8
 -35 -150 33 -200 60 -200 c 24
 86 -200 150 -150 150 -150 c 1
 150 530 l 1
 270 650 l 17
 270 650 300 590 360 590 c 24
 388 590 450 650 451 650 c 1033
360 60 m 25
 420 0 l 1049
270 275 m 1
 390 200 l 1
 390 30 l 1025
150 200 m 1
 390 350 l 9
 390 395 l 1049
360 425 m 25
 420 365 l 1049
240 475 m 25
 30 475 l 1049
EndSplineSet
Fore
SplineSet
286 500 m 1xae
 215 429 l 1
 196 429 l 1xae
 196 259 l 1
 295 321 l 1
 344 352 l 1
 344 370 l 1
 314 400 l 1
 385 471 l 1
 415 441 l 1
 436 420 l 1
 466 390 l 1
 395 319 l 1
 388 327 l 1
 365 304 l 1
 344 290 l 1
 415 246 l 1
 436 225 l 1
 436 55 l 1
 466 25 l 1
 395 -46 l 1
 365 -16 l 1
 344 5 l 1
 314 35 l 1
 344 65 l 1
 344 167 l 1
 245 229 l 1
 196 198 l 1
 196 -125 l 1
 125 -196 l 1x5e
 125 -196 61 -246 35 -246 c 0x8e
 8 -246 -60 -196 -85 -196 c 0x4e
 -117 -196 -147 -220 -163 -235 c 2
 -175 -246 l 1x8e
 -196 -225 l 1
 -196 -225 -194 -222 -191 -219 c 2
 -120 -149 l 2
 -120 -148 l 0
 -106 -134 -71 -104 -35 -104 c 0x4e
 -10 -104 58 -154 85 -154 c 0
 90 -154 98 -152 104 -149 c 1
 104 175 l 1
 104 429 l 1
 5 429 l 1
 -16 450 l 1
 55 521 l 1
 120 521 l 1
 295 696 l 1
 316 675 l 1
 316 675 320 666 328 656 c 0
 343 645 362 636 385 636 c 0
 413 636 475 696 476 696 c 2
 497 675 l 1
 426 604 l 2
 425 604 363 544 335 544 c 0
 305 544 283 559 268 574 c 2
 247 595 l 2
 245 597 244 598 242 600 c 2
 196 555 l 1
 196 521 l 1
 265 521 l 1
 286 500 l 1xae
EndSplineSet
LCarets2: 1 270 
Ligature2: "Historic ligatures-1" kbar longs
EndChar
StartChar: q_rrotunda
Encoding: 59571 59571 965
Width: 720
Flags: W
HStem: -196 21G<315 355> 426 20G<245 285 364.556 405 485 529> 426 20G<245 285 364.556 405 485 529>
VStem: 74 92<145 255> 314 92<-125 53 95 324.341>
LayerCount: 2
Back
SplineSet
360 120 m 9
 240 0 l 25
 120 120 l 25
 120 280 l 25
 240 400 l 1
 240 400 264 352 300 352 c 24
 336 352 360 400 360 400 c 9
 360 -150 l 1049
660 60 m 25
 600 0 l 1
 480 180 l 25
 600 300 l 1
 480 400 l 1
 420 340 l 1049
EndSplineSet
Fore
SplineSet
685 106 m 1xd8
 706 85 l 1
 575 -46 l 1
 554 -25 l 1
 434 155 l 1
 552 273 l 1
 455 354 l 2
 455 354 423 323 406 305 c 1
 406 -125 l 1
 335 -196 l 1
 314 -175 l 1
 314 53 l 1
 215 -46 l 1
 74 95 l 1
 74 255 l 1
 265 446 l 1
 286 425 l 1
 286 425 290 417 297 408 c 0
 305 402 315 398 325 398 c 0
 330 398 335 399 339 401 c 2
 385 446 l 1
 406 425 l 1
 406 347 l 1
 505 446 l 1
 625 346 l 1
 646 325 l 1
 526 205 l 1
 629 50 l 1
 685 106 l 1xd8
314 95 m 1
 314 325 l 1
 304 315 290 306 275 306 c 0
 260 306 247 315 237 325 c 2
 215 346 l 2
 214 347 213 348 211 350 c 2
 166 305 l 1
 166 145 l 1
 265 46 l 1
 314 95 l 1
EndSplineSet
LCarets2: 1 420 
Ligature2: "Ligatures-1" q rrotunda
EndChar
StartChar: k_longs
Encoding: 60334 60334 566
Width: 510
Flags: W
HStem: -246 92<30.8994 87.5> -196 92<-92.514 -32.4385> 451 20G<365 405> 604 32<408.669 420.188>
VStem: 104 92<-125 198 259 505> 344 92<65 167>
LayerCount: 2
Back
SplineSet
-150 -200 m 17
 -150 -200 -106 -150 -60 -150 c 8
 -35 -150 33 -200 60 -200 c 24
 86 -200 150 -150 150 -150 c 1
 150 530 l 1
 270 650 l 17
 270 650 300 590 360 590 c 24
 388 590 450 650 451 650 c 1033
360 60 m 25
 420 0 l 1049
270 275 m 1
 390 200 l 1
 390 30 l 1025
150 200 m 1
 390 350 l 9
 390 395 l 1049
360 425 m 25
 420 365 l 1049
EndSplineSet
Fore
SplineSet
314 400 m 1xbc
 385 471 l 1
 415 441 l 1
 436 420 l 1
 466 390 l 1
 395 319 l 1
 388 327 l 1
 365 304 l 1
 344 290 l 1
 415 246 l 1
 436 225 l 1
 436 55 l 1
 466 25 l 1
 395 -46 l 1
 365 -16 l 1
 344 5 l 1
 314 35 l 1
 344 65 l 1
 344 167 l 1
 245 229 l 1
 196 198 l 1
 196 -125 l 1
 125 -196 l 1x7c
 125 -196 61 -246 35 -246 c 0xbc
 8 -246 -60 -196 -85 -196 c 0x7c
 -117 -196 -147 -220 -163 -235 c 2
 -175 -246 l 1xbc
 -196 -225 l 1
 -196 -225 -194 -222 -191 -219 c 2
 -120 -149 l 2
 -120 -148 l 0
 -106 -134 -71 -104 -35 -104 c 0x7c
 -10 -104 58 -154 85 -154 c 0
 90 -154 98 -152 104 -149 c 1
 104 175 l 1
 104 505 l 1
 295 696 l 1
 316 675 l 1
 316 675 320 666 328 656 c 0
 343 645 362 636 385 636 c 0
 413 636 475 696 476 696 c 2
 497 675 l 1
 426 604 l 2
 425 604 363 544 335 544 c 0
 305 544 283 559 268 574 c 2
 247 595 l 2
 245 597 244 598 242 600 c 2
 196 555 l 1
 196 259 l 1
 295 321 l 1
 344 352 l 1
 344 370 l 1
 314 400 l 1xbc
EndSplineSet
LCarets2: 1 270 
Ligature2: "Historic ligatures-1" k longs
EndChar
StartChar: b_g
Encoding: 61123 61123 350
Width: 480
GlyphClass: 3
Flags: W
HStem: -246 92<240.899 297.5> -196 92<117.486 177.562> 426 20G<245 285> 426 20G<245 285> 651 20G<95 134.512>
VStem: 74 92<99.5798 305 347 560> 314 92<-125 53 95 300.42>
LayerCount: 2
Back
SplineSet
120 595 m 9
 120 120 l 25
 240 0 l 1
 360 120 l 25
 360 280 l 1
 240 400 l 1
 120 280 l 1049
60 -200 m 17
 60 -200 104 -150 150 -150 c 8
 175 -150 243 -200 270 -200 c 24
 296 -200 360 -150 360 -150 c 1
 360 120 l 1033
90 625 m 25
 150 565 l 1049
EndSplineSet
Fore
SplineSet
44 600 m 1x8e
 115 671 l 1
 155 630 l 1
 166 620 l 1
 196 590 l 1
 166 560 l 1
 166 347 l 1
 265 446 l 1
 406 305 l 1
 406 145 l 1
 406 -125 l 1
 335 -196 l 1x6e
 335 -196 271 -246 245 -246 c 0x8e
 218 -246 150 -196 125 -196 c 0x4e
 93 -196 63 -220 47 -235 c 2
 35 -246 l 1x8e
 14 -225 l 1
 14 -225 16 -222 19 -219 c 2
 90 -149 l 2
 90 -148 l 0
 104 -134 139 -104 175 -104 c 0x4e
 200 -104 268 -154 295 -154 c 0
 300 -154 308 -152 314 -149 c 1
 314 53 l 1
 215 -46 l 1
 74 95 l 1
 74 570 l 1
 44 600 l 1x8e
166 305 m 1
 166 145 l 2
 166 92 236 75 265 46 c 1
 314 95 l 1
 314 255 l 2
 314 308 244 325 215 354 c 1
 166 305 l 1
EndSplineSet
LCarets2: 1 240 
Ligature2: "Historic ligatures-1" b g
EndChar
StartChar: e_y
Encoding: 61127 61127 351
Width: 720
GlyphClass: 3
Flags: W
HStem: -246 92<480.899 537.5> -196 92<357.486 417.562> 426 20G<245 285 575 615> 426 20G<245 285 575 615>
VStem: 74 92<145 255> 314 92<145 215> 554 92<-125 53 95 335>
CounterMasks: 1 0e
LayerCount: 2
Back
SplineSet
360 120 m 9
 240 0 l 25
 120 120 l 25
 120 280 l 25
 240 400 l 25
 360 280 l 1
 -40 -80 l 1025
630 340 m 25
 570 400 l 1049
300 -200 m 17
 300 -200 344 -150 390 -150 c 8
 415 -150 483 -200 510 -200 c 24
 536 -200 600 -150 600 -150 c 1
 600 370 l 1025
600 120 m 9
 480 0 l 25
 360 120 l 1
 360 280 l 1049
EndSplineSet
Fore
SplineSet
275 -246 m 1x8e
 254 -225 l 1
 254 -225 256 -222 259 -219 c 2
 330 -149 l 2
 330 -148 l 0
 344 -134 379 -104 415 -104 c 0x4e
 440 -104 508 -154 535 -154 c 0x8e
 540 -154 548 -152 554 -149 c 1
 554 53 l 1
 455 -46 l 1
 335 74 l 1
 215 -46 l 1
 125 45 l 1
 -65 -126 l 1
 -86 -105 l 1
 -15 -34 l 1
 100 69 l 1
 74 95 l 1
 74 255 l 1
 265 446 l 1
 385 326 l 1
 406 305 l 1
 406 145 l 1
 505 46 l 1
 554 95 l 1
 554 345 l 1
 524 375 l 1
 595 446 l 1
 625 416 l 1
 646 395 l 1
 676 365 l 1
 646 335 l 1
 646 145 l 1
 646 -125 l 1
 575 -196 l 1x6e
 575 -196 511 -246 485 -246 c 0x8e
 458 -246 390 -196 365 -196 c 0x4e
 333 -196 303 -219 287 -234 c 2
 275 -246 l 1x8e
174 136 m 1
 310 259 l 1
 215 354 l 1
 166 305 l 1
 166 145 l 1
 174 136 l 1
314 95 m 1
 314 215 l 1
 199 112 l 1
 265 46 l 1
 314 95 l 1
EndSplineSet
LCarets2: 1 360 
Ligature2: "Historic ligatures-1" e y
EndChar
StartChar: f_j
Encoding: 61129 61129 322
Width: 540
GlyphClass: 3
Flags: W
HStem: -246 92<30.0859 90.2541> -196 92<-92.514 -30.0859> 354 92<85 104 196 365> 494 21G<375 415>
VStem: 104 92<-125 354 446 505> 374 92<-65 335>
LayerCount: 2
Back
SplineSet
420 370 m 1
 420 -90 l 9
 360 -150 l 1049
60 400 m 1
 390 400 l 25
 450 340 l 1025
-150 -200 m 1
 -150 -200 -106 -150 -60 -150 c 8
 -9 -150 9 -200 60 -200 c 24
 100 -200 150 -150 150 -150 c 1
 150 530 l 1
 270 650 l 1
 270 650 360 600 480 600 c 9
 420 540 l 1025
EndSplineSet
Fore
SplineSet
-175 -246 m 1xbc
 -196 -225 l 1
 -196 -225 -194 -222 -191 -219 c 2
 -120 -149 l 2
 -120 -148 l 0
 -106 -134 -71 -104 -35 -104 c 0x7c
 16 -104 34 -154 85 -154 c 0xbc
 91 -154 98 -153 104 -151 c 1
 104 354 l 1
 35 354 l 1
 14 375 l 1
 85 446 l 1
 104 446 l 1
 104 505 l 1
 295 696 l 1
 295 696 385 646 505 646 c 1
 526 625 l 1
 395 494 l 1
 374 515 l 1
 415 556 l 1
 316 565 245 604 245 604 c 1
 196 555 l 1
 196 446 l 1
 415 446 l 1
 445 416 l 1
 466 395 l 1
 496 365 l 1
 466 335 l 1
 466 -65 l 1
 335 -196 l 1
 314 -175 l 1
 374 -115 l 1
 374 345 l 1
 365 354 l 1
 196 354 l 1
 196 -125 l 1
 125 -196 l 1x7c
 125 -196 75 -246 35 -246 c 0xbc
 -16 -246 -34 -196 -85 -196 c 0x7c
 -117 -196 -147 -220 -163 -235 c 2
 -175 -246 l 1xbc
EndSplineSet
LCarets2: 1 360 
Ligature2: "Ligatures-1" f j
EndChar
StartChar: p_p
Encoding: 61142 61142 689
Width: 720
Flags: W
HStem: -196 21G<75 115 315 355> 426 20G<95 135 245 285 485 525> 426 20G<95 135 245 285 485 525>
VStem: 74 92<-125 -10 105 305> 314 92<-125 -7 95.683 255> 554 92<145 255>
CounterMasks: 1 1c
LayerCount: 2
Back
SplineSet
360 -150 m 1
 360 280 l 9
 480 400 l 1
 600 280 l 25
 600 120 l 1
 480 0 l 1
 480 0 439 60 330 60 c 0
 295 60 240 0 240 0 c 1
 240 0 185 60 150 60 c 0
 115 60 60 0 60 0 c 1025
360 280 m 25
 240 400 l 1
 120 280 l 1049
90 400 m 25
 150 340 l 1049
120 370 m 1
 120 -150 l 1025
EndSplineSet
Fore
SplineSet
44 375 m 1xdc
 115 446 l 1
 145 416 l 1
 166 395 l 1
 190 371 l 1
 265 446 l 1
 385 326 l 1
 505 446 l 1
 646 305 l 1
 646 145 l 1
 455 -46 l 1
 435 -26 l 2
 427 -20 418 -13 406 -7 c 1
 406 -125 l 1
 335 -196 l 1
 314 -175 l 1
 314 14 l 2
 311 14 308 14 305 14 c 0
 282 14 250 -12 231 -30 c 2
 215 -46 l 1
 200 -30 l 2
 191 -21 179 -12 166 -3 c 1
 166 -125 l 1
 95 -196 l 1
 74 -175 l 1
 74 -10 l 1
 65 -17 57 -24 51 -30 c 2
 35 -46 l 1
 14 -25 l 2
 14 -25 16 -23 21 -18 c 2
 21 -17 l 2
 74 35 l 1
 74 255 l 1
 74 345 l 1
 44 375 l 1xdc
406 101 m 2
 410 100 413 100 416 99 c 0
 458 88 484 68 496 56 c 2
 505 47 l 1
 554 95 l 1
 554 255 l 1
 455 354 l 1
 406 305 l 1
 406 101 l 2
166 305 m 1
 166 105 l 2
 169 106 172 106 175 106 c 0
 202 106 240 70 257 54 c 2
 265 46 l 1
 272 54 l 2
 281 63 297 77 314 89 c 1
 314 255 l 1
 215 354 l 1
 166 305 l 1
EndSplineSet
LCarets2: 1 360 
Ligature2: "Historic ligatures-1" p p
EndChar
StartChar: t_r
Encoding: 61144 61144 729
Width: 600
Flags: W
HStem: 354 92<85 104 196 305> 576 20G<155 195 485 525>
VStem: 104 92<57.9004 354 446 525> 314 92<65 83 125 305>
LayerCount: 2
Back
SplineSet
540 340 m 25
 480 400 l 25
 360 280 l 1049
330 60 m 25
 390 0 l 1049
360 370 m 9
 360 30 l 1025
150 550 m 1
 150 60 l 1
 210 0 l 1
 330 120 l 1025
60 400 m 1
 330 400 l 25
 390 340 l 1025
EndSplineSet
Fore
SplineSet
14 375 m 1
 85 446 l 1
 104 446 l 1
 104 525 l 1
 175 596 l 1
 196 575 l 1
 196 446 l 1
 355 446 l 1
 430 371 l 1
 505 446 l 1
 586 365 l 1
 515 294 l 1
 455 354 l 1
 406 305 l 1
 406 55 l 1
 436 25 l 1
 365 -46 l 1
 335 -16 l 1
 314 5 l 1
 284 35 l 1
 314 65 l 1
 314 83 l 1
 185 -46 l 1
 104 35 l 1
 104 354 l 1
 35 354 l 1
 14 375 l 1
196 354 m 1
 196 85 l 2
 196 65 224 57 235 46 c 1
 314 125 l 1
 314 255 l 1
 314 345 l 1
 305 354 l 1
 196 354 l 1
EndSplineSet
LCarets2: 1 360 
Ligature2: "Ligatures-1" t r
EndChar
StartChar: t_t
Encoding: 61145 61145 730
Width: 630
Flags: W
HStem: 354 92<85 104 196 344 436 515> 576 20G<155 195 395 435>
VStem: 104 92<57.9004 354 446 525> 344 92<57.9004 113 155 354 446 525>
LayerCount: 2
Back
SplineSet
390 550 m 1
 390 60 l 1
 450 0 l 1
 570 120 l 1025
60 400 m 1
 540 400 l 1041
150 550 m 1
 150 60 l 1
 210 0 l 1
 330 120 l 1025
EndSplineSet
Fore
SplineSet
175 596 m 1
 196 575 l 1
 196 446 l 1
 344 446 l 1
 344 525 l 1
 415 596 l 1
 436 575 l 1
 436 446 l 1
 565 446 l 1
 586 425 l 1
 515 354 l 1
 436 354 l 1
 436 85 l 2
 436 65 464 57 475 46 c 1
 595 166 l 1
 616 145 l 1
 425 -46 l 1
 344 35 l 1
 344 113 l 1
 185 -46 l 1
 104 35 l 1
 104 354 l 1
 35 354 l 1
 14 375 l 1
 85 446 l 1
 104 446 l 1
 104 525 l 1
 175 596 l 1
196 354 m 1
 196 85 l 2
 196 65 224 57 235 46 c 1
 344 155 l 1
 344 354 l 1
 196 354 l 1
EndSplineSet
LCarets2: 1 360 
Ligature2: "Ligatures-1" t t
EndChar
StartChar: m.alt
Encoding: 61987 61987 588
Width: 720
Flags: W
HStem: -196 21G<495 535> 426 20G<95 135 275 315 515 555> 426 20G<95 135 275 315 515 555>
VStem: 74 92<65 275 317 335> 314 92<65 275> 554 92<-65 321.97>
CounterMasks: 1 1c
AnchorPoint: "abvmark" 360 500 basechar 0
LayerCount: 2
Back
SplineSet
330 60 m 25
 390 0 l 1049
360 30 m 1
 360 310 l 25
 270 400 l 1
 120 250 l 1049
90 60 m 25
 150 0 l 1049
150 340 m 25
 90 400 l 1049
120 370 m 9
 120 30 l 1025
540 -150 m 25
 600 -90 l 1
 600 310 l 9
 510 400 l 1
 360 250 l 1049
EndSplineSet
Fore
SplineSet
515 -196 m 1xdc
 494 -175 l 1
 554 -115 l 1
 554 285 l 2
 554 322 505 334 485 354 c 1
 406 275 l 1
 406 55 l 1
 436 25 l 1
 365 -46 l 1
 335 -16 l 1
 314 5 l 1
 284 35 l 1
 314 65 l 1
 314 225 l 1
 314 285 l 2
 314 322 265 334 245 354 c 1
 166 275 l 1
 166 55 l 1
 196 25 l 1
 125 -46 l 1
 74 5 l 1
 44 35 l 1
 74 65 l 1
 74 225 l 1
 74 345 l 1
 44 375 l 1
 115 446 l 1
 145 416 l 1
 166 395 l 1
 196 365 l 1
 166 335 l 1
 166 317 l 1
 295 446 l 1
 406 335 l 1
 406 317 l 1
 535 446 l 1
 646 335 l 1
 646 -65 l 1
 515 -196 l 1xdc
EndSplineSet
EndChar
StartChar: longs_c_h
Encoding: 62714 62714 706
Width: 1020
Flags: W
HStem: -246 92<30.8994 87.5> -196 92<-92.514 -32.4385> 426 20G<485 525 815 855> 426 20G<485 525 815 855> 604 32<408.669 420.188> 651 20G<635 675>
VStem: 104 92<-125 505> 314 92<99.5798 255> 614 92<65 113 155 273 337 560> 854 92<65 321.97>
LayerCount: 2
Back
SplineSet
-150 -200 m 17
 -150 -200 -106 -150 -60 -150 c 8
 -35 -150 33 -200 60 -200 c 24
 86 -200 150 -150 150 -150 c 1
 150 530 l 1
 270 650 l 17
 270 650 300 590 360 590 c 24
 388 590 450 650 451 650 c 1033
600 280 m 9
 480 400 l 25
 360 280 l 25
 360 120 l 25
 480 0 l 25
 600 120 l 1041
870 60 m 25
 930 0 l 1049
630 60 m 25
 690 0 l 1049
630 625 m 25
 690 565 l 1049
660 595 m 9
 660 30 l 1049
900 30 m 25
 900 310 l 25
 810 400 l 1
 660 250 l 1049
EndSplineSet
Fore
SplineSet
685 641 m 1x2fc0
 706 620 l 1
 736 590 l 1
 706 560 l 1
 706 317 l 1
 835 446 l 1
 946 335 l 1
 946 55 l 1
 976 25 l 1
 905 -46 l 1
 875 -16 l 1
 854 5 l 1
 824 35 l 1
 854 65 l 1
 854 285 l 2
 854 322 805 334 785 354 c 1
 706 275 l 1
 706 55 l 1
 736 25 l 1
 665 -46 l 1
 635 -16 l 1
 614 5 l 1
 584 35 l 1
 614 65 l 1
 614 113 l 1
 455 -46 l 1
 314 95 l 1
 314 255 l 1
 505 446 l 1
 614 337 l 1
 614 570 l 1
 584 600 l 1
 655 671 l 1
 685 641 l 1x2fc0
-175 -246 m 1x8fc0
 -196 -225 l 1
 -196 -225 -194 -222 -191 -219 c 2
 -120 -149 l 2
 -120 -148 l 0
 -106 -134 -71 -104 -35 -104 c 0x4fc0
 -10 -104 58 -154 85 -154 c 0x8fc0
 90 -154 98 -152 104 -149 c 1
 104 505 l 1
 295 696 l 1
 316 675 l 1
 316 675 320 666 328 656 c 0
 343 645 362 636 385 636 c 0
 413 636 475 696 476 696 c 2
 497 675 l 1
 426 604 l 2
 425 604 363 544 335 544 c 0
 305 544 283 559 268 574 c 2
 247 595 l 2
 245 597 244 598 242 600 c 2
 196 555 l 1
 196 -125 l 1
 125 -196 l 1x4fc0
 125 -196 61 -246 35 -246 c 0x8fc0
 8 -246 -60 -196 -85 -196 c 0x4fc0
 -117 -196 -147 -220 -163 -235 c 2
 -175 -246 l 1x8fc0
614 225 m 1
 614 273 l 1
 575 234 l 1
 455 354 l 1
 406 305 l 1
 406 145 l 2
 406 92 476 75 505 46 c 1
 614 155 l 1
 614 225 l 1
EndSplineSet
LCarets2: 2 360 660 
Ligature2: "Ligatures-1" longs c h
EndChar
StartChar: longs_k
Encoding: 62716 62716 708
Width: 780
Flags: W
HStem: -246 92<30.8994 87.5> -196 92<-92.514 -32.4385> 451 20G<635 675>
VStem: 104 92<-125 505> 374 92<65 198 259 557.012> 614 92<65 167>
LayerCount: 2
Back
SplineSet
630 425 m 25
 690 365 l 1049
420 200 m 1
 660 350 l 9
 660 395 l 1049
540 275 m 1
 660 200 l 1
 660 30 l 1025
630 60 m 25
 690 0 l 1049
390 60 m 25
 450 0 l 1049
-150 -200 m 17
 -150 -200 -106 -150 -60 -150 c 8
 -35 -150 33 -200 60 -200 c 24
 86 -200 150 -150 150 -150 c 1
 150 530 l 1
 270 650 l 1
 270 650 319 600 420 600 c 9
 420 30 l 1025
EndSplineSet
Fore
SplineSet
-175 -246 m 1xbc
 -196 -225 l 1
 -196 -225 -194 -222 -191 -219 c 2
 -120 -149 l 2
 -120 -148 l 0
 -106 -134 -71 -104 -35 -104 c 0x7c
 -10 -104 58 -154 85 -154 c 0xbc
 90 -154 98 -152 104 -149 c 1
 104 505 l 1
 295 696 l 2
 298 693 347 646 445 646 c 1
 466 625 l 1
 466 259 l 1
 565 321 l 1
 614 352 l 1
 614 370 l 1
 584 400 l 1
 655 471 l 1
 685 441 l 1
 706 420 l 1
 736 390 l 1
 665 319 l 1
 658 327 l 1
 635 304 l 1
 614 290 l 1
 685 246 l 1
 706 225 l 1
 706 55 l 1
 736 25 l 1
 665 -46 l 1
 635 -16 l 1
 614 5 l 1
 584 35 l 1
 614 65 l 1
 614 167 l 1
 515 229 l 1
 466 198 l 1
 466 55 l 1
 496 25 l 1
 425 -46 l 1
 395 -16 l 1
 374 5 l 1
 344 35 l 1
 374 65 l 1
 374 175 l 1
 374 555 l 1
 290 561 247 602 245 604 c 2
 196 555 l 1
 196 -125 l 1
 125 -196 l 1x7c
 125 -196 61 -246 35 -246 c 0xbc
 8 -246 -60 -196 -85 -196 c 0x7c
 -117 -196 -147 -220 -163 -235 c 2
 -175 -246 l 1xbc
EndSplineSet
LCarets2: 1 360 
Ligature2: "Ligatures-1" longs k
EndChar
StartChar: s_t
Encoding: 64262 64262 334
Width: 840
Flags: W
HStem: 14 92<124.001 188.505> 304 92<352.366 554> 426 20G<245 380.6 772 795> 446 130G<245 380.6 605 645 772 795>
VStem: 554 92<78 305 400 525>
LayerCount: 2
Back
SplineSet
60 0 m 1
 60 0 108 60 150 60 c 24
 192 60 240 0 240 0 c 9
 360 120 l 1
 360 160 l 1
 120 240 l 1
 120 280 l 1
 240 400 l 17
 240 400 329.634476582 350 540 350 c 3
 709.255203672 350 750 400 750 400 c 1033
600 550 m 1
 600 50 l 1
 660 0 l 1
 780 100 l 1025
EndSplineSet
Fore
SplineSet
625 596 m 1xe8
 646 575 l 1
 646 400 l 1
 729 410 763 435 772 443 c 2
 775 446 l 1
 796 425 l 1
 796 425 796 424 795 423 c 0
 724 353 l 2
 719 348 698 330 646 317 c 1
 646 78 l 1
 685 46 l 1
 805 146 l 1
 826 125 l 1
 755 54 l 1
 635 -46 l 1
 575 4 l 1
 554 25 l 1
 554 305 l 1
 542 304 529 304 515 304 c 0
 305 304 215 354 215 354 c 1
 166 305 l 1
 166 279 l 1
 385 206 l 1
 406 185 l 1
 406 145 l 1
 215 -46 l 1
 194 -25 l 2
 194 -25 192 -23 188 -18 c 0
 171 -3 147 14 125 14 c 0
 106 14 86 2 69 -12 c 2
 35 -46 l 1
 14 -25 l 1
 14 -25 20 -17 30 -7 c 2
 101 64 l 2
 102 65 l 0
 120 83 149 106 175 106 c 0
 202 106 230 82 248 64 c 2
 266 47 l 1
 314 95 l 1
 314 121 l 1
 95 194 l 1
 74 215 l 1
 74 255 l 1
 265 446 l 1
 265 446 351 398 554 396 c 1
 554 525 l 1
 625 596 l 1xe8
EndSplineSet
LCarets2: 1 480 
Ligature2: "Ligatures-1" s t
EndChar
